<svg id="eeOL2CGyfQH1" xmlns="http://www.w3.org/2000/svg" xmlns:xlink="http://www.w3.org/1999/xlink" viewBox="0 0 566 384" shape-rendering="geometricPrecision" text-rendering="geometricPrecision"><line id="eeOL2CGyfQH2" x1="352" y1="356.5" x2="565.605" y2="356.5" opacity="0" fill="none" stroke="#e3e3e3"/><line id="eeOL2CGyfQH3" x1="352.5" y1="260" x2="352.5" y2="357" opacity="0" fill="none" stroke="#e3e3e3"/><line id="eeOL2CGyfQH4" x1="0" y1="-0.5" x2="352.395" y2="-0.5" transform="matrix(.999999-.001393 0.001207 0.999999 0 260.491)" opacity="0" fill="none" stroke="#e3e3e3"/><line id="eeOL2CGyfQH5" x1="0.5" y1="260" x2="0.499989" y2="334" opacity="0" fill="none" stroke="#e3e3e3"/><line id="eeOL2CGyfQH6" x1="0" y1="-0.5" x2="312.277" y2="-0.5" transform="matrix(.999995 0.00312-.004118 0.999991 0 333.772)" opacity="0" fill="none" stroke="#e3e3e3"/><line id="eeOL2CGyfQH7" x1="0" y1="-0.5" x2="333.669" y2="-0.5" transform="matrix(.006623-.999978 0.99999 0.00446 312.275 334.662)" opacity="0" fill="none" stroke="#e3e3e3"/><line id="eeOL2CGyfQH8" x1="314.444" y1="0.5" x2="393.598" y2="0.5" opacity="0" fill="none" stroke="#e3e3e3"/><line id="eeOL2CGyfQH9" x1="394.098" y1="0.995726" x2="396.543" y2="286.995" opacity="0" fill="none" stroke="#e3e3e3"/><line id="eeOL2CGyfQH10" x1="395" y1="286.5" x2="565.234" y2="286.5" opacity="0" fill="none" stroke="#e3e3e3"/><g id="eeOL2CGyfQH11" opacity="0"><rect width="55" height="55" rx="20" ry="20" transform="translate(480 329)" fill="#d9d9d9"/><path d="M505.356,368.005c.007.164-.01.323-.045.485-.061.285-.178.585-.343.863-.471.79-1.271,1.318-2.301,1.318-2.427,0-3.379-1.191-4.572-4.172-.807-2.019-1.188-2.495-2.095-2.495v-2.667c2.427,0,3.379,1.191,4.571,4.172.808,2.019,1.189,2.495,2.096,2.495c0-.387-.006-.73-.017-1.194-.026-1.088-.029-1.31.019-1.6.018-.635.182-1.086.511-1.533-2.976-.647-4.983-1.985-6.135-4.155l-.431-1.015c-.421-1.208-.614-2.577-.614-4.158c0-1.821.555-3.449,1.592-4.809-.323-1.294-.279-2.874.435-4.659l.233-.583.599-.192c.08-.025.177-.049.292-.067c1.165-.182,2.822.254,4.99,1.642c1.277-.296,2.623-.446,3.977-.446c1.211,0,2.415.122,3.564.363c2.109-1.32,3.721-1.735,4.855-1.558.113.017.209.04.289.065l.602.191.233.587c.625,1.569.732,3.015.505,4.28c1.192,1.43,1.834,3.189,1.834,5.186c0,1.684-.121,2.95-.467,4.182l-.366,1.005c-.959,2.167-3.072,3.52-6.33,4.164.338.469.496.945.496,1.637v1.334c0,.646,0,.666-.001,1.333.003.048.007.071.011.086c0,0-.004.86-.01,2.581-1.135,0-1.98-.554-2.395-1.428-.215-.453-.28-.886-.271-1.258v-2.648c0-.112-.004-.118-.276-.39-.728-.728-1.058-1.277-1.058-2.276v-1.207l1.2-.12c3.573-.359,5.516-1.351,6.16-2.8l.301-.823c.239-.861.339-1.909.339-3.372c0-1.555-.542-2.839-1.569-3.865l-.564-.564.23-.764c.205-.679.253-1.482.037-2.397-.036.009-.074.019-.112.029-.714.199-1.606.626-2.68,1.344l-.49.327-.572-.142c-1.106-.274-2.295-.415-3.495-.415-1.334,0-2.653.17-3.872.502l-.595.162-.509-.348c-1.11-.76-2.033-1.212-2.773-1.423-.053-.015-.104-.028-.151-.04-.259,1.06-.157,1.93.105,2.584l.314.783-.574.619c-.915.986-1.396,2.186-1.396,3.608c0,1.302.152,2.382.432,3.194l.348.826c.873,1.637,2.725,2.622,6.028,2.976l1.192.128v1.198c0,.999-.33,1.548-1.058,2.276-.272.272-.276.278-.276.39l-.023.247c-.015.081-.015.289.006,1.162.01.402.015.719.017,1.051.016.069.018.113.023.208Z" clip-rule="evenodd" fill-rule="evenodd"/></g><g id="eeOL2CGyfQH14" opacity="0"><rect width="55" height="55" rx="20" ry="20" transform="translate(42 232)" fill="#d9d9d9"/><path d="M58.6,247h20.8c1.4359,0,2.6,1.164,2.6,2.6v20.8c0,1.436-1.1641,2.6-2.6,2.6h-20.8c-1.4359,0-2.6-1.164-2.6-2.6v-20.8c0-1.436,1.1641-2.6,2.6-2.6Zm0,2.6v20.8h20.8v-20.8h-20.8Zm9.6878,7.088c.628-.382,1.3391-.588,2.0122-.588h1.3c1.8121,0,3.9,1.491,3.9,3.9v5.2h-2.6v-5.2c0-.748-.7721-1.3-1.3-1.3h-1.3c-.5279,0-1.3.552-1.3,1.3v5.2h-2.6v-9.1h1.3l.5878.588ZM63.8,254.8c-.718,0-1.3-.582-1.3-1.3s.582-1.3,1.3-1.3s1.3.582,1.3,1.3-.582,1.3-1.3,1.3Zm1.3,10.4h-2.6v-9.1h2.6v9.1Z" clip-rule="evenodd" fill-rule="evenodd"/></g><g id="eeOL2CGyfQH17" opacity="0"><rect width="55" height="55" rx="20" ry="20" transform="translate(368 259)" fill="#d9d9d9"/><path d="M406.636,281.179v-2.815h-21.272v2.815L396,286.497l10.636-5.318Zm0,2.643L396,289.14l-10.636-5.319v11.088h21.272v-11.087ZM385.364,276h21.272c1.306,0,2.364,1.058,2.364,2.364v16.545c0,1.305-1.058,2.364-2.364,2.364h-21.272c-1.306,0-2.364-1.059-2.364-2.364v-16.545c0-1.306,1.058-2.364,2.364-2.364Z" clip-rule="evenodd" fill-rule="evenodd"/></g><path id="eeOL2CGyfQH20" d="M299.042,78.95c0,.5667-.216,1.05-.65,1.45-.4.4-.883.6-1.45.6-.633,0-1.133-.2-1.5-.6-.366-.4-.55-.8833-.55-1.45v-30.9c0-.6.2-1.0833.6-1.45.4-.4.9-.6,1.5-.6.567,0,1.05.2,1.45.6.4.3667.6.85.6,1.45v30.9Zm12.99-29.1c0,.9667-.284,1.9167-.85,2.85-.567.9333-1.267,1.7167-2.1,2.35-.834.6-1.684.9-2.55.9-.3,0-.6-.1-.9-.3s-.45-.5833-.45-1.15.183-.8833.55-.95c.366-.1.766-.2667,1.2-.5.533-.2667.933-.5833,1.2-.95.3-.3667.45-.8.45-1.3c0-.4333-.15-.7667-.45-1-.267-.2667-.617-.4-1.05-.4-.2,0-.434.0333-.7.1-.234.0667-.45.1667-.65.3-.234-.1667-.434-.35-.6-.55-.167-.2333-.234-.55-.2-.95.033-.7.383-1.3167,1.05-1.85.7-.5333,1.5-.8,2.4-.8c1.1,0,1.983.4167,2.65,1.25.666.8,1,1.7833,1,2.95Zm18.485,4.9c2.266,0,4.1.5833,5.5,1.75c1.433,1.1333,2.383,2.75,2.85,4.85h-.75l.35-.9c.4-.9333,1.083-1.8333,2.05-2.7.966-.8667,2.083-1.5833,3.35-2.15c1.266-.5667,2.583-.85,3.95-.85c2.2,0,3.933.4833,5.2,1.45c1.266.9333,2.166,2.2,2.7,3.8.566,1.5667.85,3.3333.85,5.3v13.65c0,.5667-.2,1.05-.6,1.45-.367.4-.834.6-1.4.6-.6,0-1.084-.2-1.45-.6-.367-.4-.55-.8833-.55-1.45v-13.55c0-1.3-.2-2.4667-.6-3.5-.367-1.0667-.984-1.9-1.85-2.5-.834-.6333-1.984-.95-3.45-.95-1.367,0-2.617.3167-3.75.95-1.134.6-2.034,1.4333-2.7,2.5-.667,1.0333-1,2.2-1,3.5v13.55c0,.5667-.184,1.05-.55,1.45-.367.4-.85.6-1.45.6-.567,0-1.05-.2-1.45-.6-.367-.4-.55-.8833-.55-1.45v-13.7c0-1.2667-.184-2.4-.55-3.4-.334-1.0333-.917-1.85-1.75-2.45-.834-.6333-1.984-.95-3.45-.95-1.334,0-2.55.3167-3.65.95-1.1.6-1.984,1.4167-2.65,2.45-.667,1-1,2.1333-1,3.4v13.7c0,.5667-.2,1.05-.6,1.45-.367.4-.834.6-1.4.6-.567,0-1.05-.2-1.45-.6-.367-.4-.55-.8833-.55-1.45v-21.8c0-.5667.183-1.0333.55-1.4.4-.4.883-.6,1.45-.6.6,0,1.083.2,1.45.6.366.3667.55.8333.55,1.4v3.8l-1.1,1.2c.133-.8667.466-1.7333,1-2.6.566-.8667,1.283-1.6667,2.15-2.4.866-.7333,1.833-1.3167,2.9-1.75c1.066-.4333,2.2-.65,3.4-.65Zm60.02-3.55l-11.75,28.6c-.133.4-.367.7167-.7.95s-.683.35-1.05.35c-.633,0-1.1-.1667-1.4-.5s-.45-.7333-.45-1.2c-.033-.2333,0-.4833.1-.75l12.95-31.5c.167-.4667.417-.8.75-1c.367-.2333.767-.3333,1.2-.3.433,0,.817.1167,1.15.35.367.2333.617.55.75.95l12.9,31.2c.1.2667.15.5333.15.8c0,.6-.2,1.0833-.6,1.45-.4.3333-.85.5-1.35.5-.4,0-.767-.1167-1.1-.35s-.583-.5667-.75-1l-11.9-28.6l1.1.05Zm-9.25,20.45l1.7-3.9h14.85l.75,3.9h-17.3Zm33.028,7.3c0,.5667-.2,1.05-.6,1.45s-.883.6-1.45.6-1.033-.2-1.4-.6-.55-.8833-.55-1.45v-32.95c0-.5667.183-1.0333.55-1.4.4-.4.883-.6,1.45-.6.6,0,1.083.2,1.45.6.367.3667.55.8333.55,1.4v32.95ZM443.373,54.9c.567,0,1.033.2,1.4.6.4.3667.6.8333.6,1.4v22.05c0,.5667-.2,1.05-.6,1.45-.367.4-.833.6-1.4.6-.6,0-1.083-.2-1.45-.6s-.55-.8833-.55-1.45v-4.75l.95-.1c0,.7333-.25,1.5333-.75,2.4s-1.183,1.6833-2.05,2.45c-.867.7333-1.9,1.35-3.1,1.85-1.167.4667-2.433.7-3.8.7-2.267,0-4.3-.5833-6.1-1.75-1.8-1.2-3.233-2.8167-4.3-4.85-1.033-2.0333-1.55-4.35-1.55-6.95c0-2.6333.517-4.95,1.55-6.95c1.067-2.0333,2.5-3.6167,4.3-4.75c1.8-1.1667,3.8-1.75,6-1.75c1.433,0,2.767.2333,4,.7s2.3,1.1,3.2,1.9c.933.8,1.65,1.6833,2.15,2.65.533.9667.8,1.9333.8,2.9l-1.3-.3v-5.45c0-.5667.183-1.0333.55-1.4.367-.4.85-.6,1.45-.6Zm-10.3,22.9c1.667,0,3.133-.4333,4.4-1.3c1.3-.8667,2.3-2.0333,3-3.5.733-1.5,1.1-3.1833,1.1-5.05c0-1.8333-.367-3.4833-1.1-4.95-.7-1.5-1.7-2.6667-3-3.5-1.267-.8667-2.733-1.3-4.4-1.3-1.633,0-3.1.4167-4.4,1.25-1.267.8333-2.267,1.9833-3,3.45s-1.1,3.15-1.1,5.05c0,1.8667.35,3.55,1.05,5.05.733,1.4667,1.733,2.6333,3,3.5c1.3.8667,2.783,1.3,4.45,1.3Zm32.563-23.3c2.267,0,4.05.4667,5.35,1.4s2.217,2.1833,2.75,3.75c.567,1.5667.85,3.3167.85,5.25v14.05c0,.5667-.2,1.05-.6,1.45-.367.4-.833.6-1.4.6s-1.05-.2-1.45-.6c-.367-.4-.55-.8833-.55-1.45v-13.95c0-1.2667-.2-2.4-.6-3.4-.367-1.0333-1-1.85-1.9-2.45-.867-.6333-2.067-.95-3.6-.95-1.4,0-2.683.3167-3.85.95-1.167.6-2.1,1.4167-2.8,2.45-.7,1-1.05,2.1333-1.05,3.4v13.95c0,.5667-.2,1.05-.6,1.45-.367.4-.833.6-1.4.6s-1.05-.2-1.45-.6c-.367-.4-.55-.8833-.55-1.45v-21.8c0-.5667.183-1.0333.55-1.4.4-.4.883-.6,1.45-.6.6,0,1.083.2,1.45.6.367.3667.55.8333.55,1.4v3.55l-1,1.1c.167-.8667.55-1.7333,1.15-2.6.6-.9,1.35-1.7,2.25-2.4s1.9-1.25,3-1.65c1.1-.4333,2.25-.65,3.45-.65ZM50.6,144.5c-2.4667,0-4.6333-.367-6.5-1.1s-3.6667-1.9-5.4-3.5c-.2333-.233-.4333-.483-.6-.75-.1333-.3-.2-.617-.2-.95c0-.533.1833-1,.55-1.4.4-.433.8833-.65,1.45-.65.4667,0,.8833.183,1.25.55c1.3,1.267,2.7,2.233,4.2,2.9c1.5333.667,3.25,1,5.15,1c1.4667,0,2.7833-.233,3.95-.7c1.2-.467,2.15-1.117,2.85-1.95s1.05-1.8,1.05-2.9c-.0333-1.333-.4333-2.433-1.2-3.3-.7333-.867-1.7667-1.583-3.1-2.15-1.3-.6-2.8167-1.1-4.55-1.5-1.5333-.367-2.95-.817-4.25-1.35-1.2667-.533-2.3667-1.183-3.3-1.95-.9333-.8-1.6667-1.75-2.2-2.85-.5-1.133-.75-2.45-.75-3.95c0-1.9.5-3.567,1.5-5s2.3833-2.533,4.15-3.3c1.7667-.8,3.8-1.2,6.1-1.2c2.0333,0,3.95.333,5.75,1c1.8333.667,3.3,1.583,4.4,2.75.6667.633,1,1.25,1,1.85c0,.5-.2167.967-.65,1.4-.4.4-.8667.6-1.4.6-.3667,0-.7-.133-1-.4-.5667-.633-1.2833-1.2-2.15-1.7s-1.8167-.9-2.85-1.2-2.0667-.45-3.1-.45c-1.5333,0-2.8833.233-4.05.7-1.1667.433-2.0833,1.067-2.75,1.9-.6333.8-.95,1.767-.95,2.9c0,1.267.3667,2.317,1.1,3.15.7333.8,1.7167,1.467,2.95,2c1.2333.5,2.6.95,4.1,1.35c1.6333.4,3.1333.867,4.5,1.4c1.4.5,2.6,1.133,3.6,1.9s1.7667,1.75,2.3,2.95c.5667,1.167.85,2.617.85,4.35c0,1.833-.5167,3.467-1.55,4.9s-2.45,2.567-4.25,3.4c-1.7667.8-3.7667,1.217-6,1.25ZM92.9609,131c0,2.6-.5833,4.917-1.75,6.95-1.1333,2.033-2.6833,3.633-4.65,4.8-1.9333,1.167-4.1166,1.75-6.55,1.75s-4.6333-.583-6.6-1.75c-1.9666-1.167-3.5333-2.767-4.7-4.8-1.1333-2.033-1.7-4.35-1.7-6.95s.5667-4.917,1.7-6.95c1.1667-2.033,2.7334-3.633,4.7-4.8c1.9667-1.167,4.1667-1.75,6.6-1.75s4.6167.583,6.55,1.75c1.9667,1.167,3.5167,2.767,4.65,4.8c1.1667,2.033,1.75,4.35,1.75,6.95Zm-4,0c0-1.933-.4-3.633-1.2-5.1-.7666-1.467-1.8333-2.617-3.2-3.45-1.3333-.833-2.85-1.25-4.55-1.25s-3.2333.417-4.6,1.25c-1.3333.833-2.4,1.983-3.2,3.45s-1.2,3.167-1.2,5.1c0,1.9.4,3.583,1.2,5.05s1.8667,2.633,3.2,3.5c1.3667.833,2.9,1.25,4.6,1.25s3.2167-.417,4.55-1.25c1.3667-.867,2.4334-2.033,3.2-3.5.8-1.467,1.2-3.15,1.2-5.05Zm20.8161-23.9c.567,0,1.15.067,1.75.2.634.133,1.167.367,1.6.7.467.333.7.783.7,1.35c0,.533-.166.983-.5,1.35-.333.333-.733.5-1.2.5-.3,0-.716-.083-1.25-.25-.533-.2-1.083-.3-1.65-.3-.766,0-1.4.167-1.9.5-.466.333-.816.783-1.05,1.35-.2.533-.3,1.133-.3,1.8v27.65c0,.567-.2,1.05-.6,1.45-.366.4-.833.6-1.4.6-.6,0-1.083-.2-1.45-.6-.366-.4-.55-.883-.55-1.45v-27.6c0-2.233.684-4,2.05-5.3c1.4-1.3,3.317-1.95,5.75-1.95Zm1.4,11.45c.534,0,.984.183,1.35.55.367.333.55.767.55,1.3s-.183.983-.55,1.35c-.366.333-.816.5-1.35.5h-12.5497c-.5333,0-.9833-.183-1.35-.55-.3666-.367-.55-.8-.55-1.3c0-.567.1834-1.017.55-1.35.3667-.333.8167-.5,1.35-.5h12.5497Zm6.234-.25h11.75c.533,0,.967.183,1.3.55.367.367.55.8.55,1.3c0,.533-.183.983-.55,1.35-.333.333-.767.5-1.3.5h-11.75c-.5,0-.933-.183-1.3-.55s-.55-.817-.55-1.35c0-.5.183-.917.55-1.25.367-.367.8-.55,1.3-.55Zm5.25-6.8c.567,0,1.033.2,1.4.6.367.367.55.833.55,1.4v24.15c0,.8.117,1.4.35,1.8s.533.683.9.85c.4.133.783.2,1.15.2.333,0,.617-.05.85-.15.267-.133.567-.2.9-.2s.633.167.9.5c.3.3.45.7.45,1.2c0,.6-.35,1.117-1.05,1.55-.7.4-1.483.6-2.35.6-.467,0-1.05-.033-1.75-.1-.667-.067-1.333-.283-2-.65s-1.233-.967-1.7-1.8c-.433-.867-.65-2.067-.65-3.6v-24.35c0-.567.2-1.033.6-1.4.4-.4.883-.6,1.45-.6Zm46.416,6.2c.533,0,.983.183,1.35.55.4.367.6.85.6,1.45c0,.133-.017.283-.05.45c0,.133-.033.267-.1.4l-7.7,22.15c-.167.433-.45.767-.85,1-.367.233-.767.333-1.2.3-.767-.033-1.35-.467-1.75-1.3l-6.3-15.8l1,.15-5.7,15.65c-.367.833-.95,1.267-1.75,1.3-.433.033-.85-.067-1.25-.3s-.667-.567-.8-1l-7.85-22.15c-.1-.3-.15-.583-.15-.85c0-.533.183-1,.55-1.4s.867-.6,1.5-.6c.4,0,.767.1,1.1.3s.567.517.7.95l6.75,19.7-1.05-.05l5.85-15c.333-.833.95-1.25,1.85-1.25.467,0,.833.117,1.1.35.3.2.517.5.65.9l6.1,15-1.25.1l6.75-19.75c.3-.833.933-1.25,1.9-1.25Zm28.837.2c.567,0,1.033.2,1.4.6.4.367.6.833.6,1.4v22.05c0,.567-.2,1.05-.6,1.45-.367.4-.833.6-1.4.6-.6,0-1.083-.2-1.45-.6s-.55-.883-.55-1.45v-4.75l.95-.1c0,.733-.25,1.533-.75,2.4s-1.183,1.683-2.05,2.45c-.867.733-1.9,1.35-3.1,1.85-1.167.467-2.433.7-3.8.7-2.267,0-4.3-.583-6.1-1.75-1.8-1.2-3.233-2.817-4.3-4.85-1.033-2.033-1.55-4.35-1.55-6.95c0-2.633.517-4.95,1.55-6.95c1.067-2.033,2.5-3.617,4.3-4.75c1.8-1.167,3.8-1.75,6-1.75c1.433,0,2.767.233,4,.7s2.3,1.1,3.2,1.9c.933.8,1.65,1.683,2.15,2.65.533.967.8,1.933.8,2.9l-1.3-.3v-5.45c0-.567.183-1.033.55-1.4.367-.4.85-.6,1.45-.6Zm-10.3,22.9c1.667,0,3.133-.433,4.4-1.3c1.3-.867,2.3-2.033,3-3.5.733-1.5,1.1-3.183,1.1-5.05c0-1.833-.367-3.483-1.1-4.95-.7-1.5-1.7-2.667-3-3.5-1.267-.867-2.733-1.3-4.4-1.3-1.633,0-3.1.417-4.4,1.25-1.267.833-2.267,1.983-3,3.45s-1.1,3.15-1.1,5.05c0,1.867.35,3.55,1.05,5.05.733,1.467,1.733,2.633,3,3.5c1.3.867,2.783,1.3,4.45,1.3Zm21.713,3.2c-.567,0-1.05-.2-1.45-.6-.367-.4-.55-.883-.55-1.45v-21.8c0-.567.183-1.033.55-1.4.4-.4.883-.6,1.45-.6.6,0,1.083.2,1.45.6.367.367.55.833.55,1.4v6.6l-.6-1.05c.2-1.033.55-2.033,1.05-3c.533-1,1.2-1.883,2-2.65.8-.8,1.717-1.417,2.75-1.85c1.033-.467,2.167-.7,3.4-.7.733,0,1.4.183,2,.55.633.333.95.817.95,1.45c0,.7-.183,1.217-.55,1.55s-.783.5-1.25.5c-.433,0-.85-.083-1.25-.25-.4-.2-.9-.3-1.5-.3-.833,0-1.667.233-2.5.7-.8.433-1.55,1.067-2.25,1.9-.667.833-1.217,1.783-1.65,2.85-.4,1.033-.6,2.15-.6,3.35v12.15c0,.567-.2,1.05-.6,1.45-.367.4-.833.6-1.4.6Zm28.895.5c-2.666,0-5-.567-7-1.7s-3.566-2.683-4.7-4.65c-1.1-2-1.65-4.3-1.65-6.9c0-2.9.567-5.367,1.7-7.4c1.167-2.067,2.667-3.633,4.5-4.7c1.867-1.1,3.834-1.65,5.9-1.65c1.534,0,3.017.283,4.45.85c1.434.567,2.7,1.4,3.8,2.5c1.1,1.067,1.984,2.367,2.65,3.9.667,1.5,1.017,3.183,1.05,5.05c0,.533-.2.983-.6,1.35s-.866.55-1.4.55h-19.75l-.9-3.45h19.25l-.8.7v-1.1c-.133-1.367-.6-2.533-1.4-3.5-.766-1-1.716-1.767-2.85-2.3-1.1-.533-2.266-.8-3.5-.8-1,0-2,.183-3,.55-.966.333-1.85.9-2.65,1.7-.766.767-1.4,1.767-1.9,3-.466,1.233-.7,2.717-.7,4.45c0,1.933.384,3.633,1.15,5.1.8,1.467,1.9,2.633,3.3,3.5c1.4.833,3.034,1.25,4.9,1.25c1.167,0,2.184-.15,3.05-.45.867-.3,1.617-.667,2.25-1.1.634-.467,1.167-.933,1.6-1.4.434-.3.85-.45,1.25-.45.5,0,.9.167,1.2.5.334.333.5.733.5,1.2c0,.567-.266,1.067-.8,1.5-.933,1.033-2.2,1.95-3.8,2.75-1.6.767-3.3,1.15-5.1,1.15ZM271.404,109h17.8c.567,0,1.05.183,1.45.55s.6.833.6,1.4-.2,1.033-.6,1.4c-.4.333-.883.5-1.45.5h-16.1l.45-.85v12.65l-.5-.55h13.9c.567,0,1.05.183,1.45.55s.6.833.6,1.4-.2,1.033-.6,1.4c-.4.333-.883.5-1.45.5h-13.75l.35-.45v12.95l-.3-.35h15.95c.567,0,1.05.2,1.45.6s.6.85.6,1.35c0,.567-.2,1.033-.6,1.4s-.883.55-1.45.55h-17.8c-.567,0-1.05-.2-1.45-.6-.367-.4-.55-.883-.55-1.45v-30.95c0-.567.183-1.033.55-1.4.4-.4.883-.6,1.45-.6Zm38.666,8.5c2.266,0,4.05.467,5.35,1.4s2.216,2.183,2.75,3.75c.566,1.567.85,3.317.85,5.25v14.05c0,.567-.2,1.05-.6,1.45-.367.4-.834.6-1.4.6-.567,0-1.05-.2-1.45-.6-.367-.4-.55-.883-.55-1.45v-13.95c0-1.267-.2-2.4-.6-3.4-.367-1.033-1-1.85-1.9-2.45-.867-.633-2.067-.95-3.6-.95-1.4,0-2.684.317-3.85.95-1.167.6-2.1,1.417-2.8,2.45-.7,1-1.05,2.133-1.05,3.4v13.95c0,.567-.2,1.05-.6,1.45-.367.4-.834.6-1.4.6-.567,0-1.05-.2-1.45-.6-.367-.4-.55-.883-.55-1.45v-21.8c0-.567.183-1.033.55-1.4.4-.4.883-.6,1.45-.6.6,0,1.083.2,1.45.6.366.367.55.833.55,1.4v3.55l-1,1.1c.166-.867.55-1.733,1.15-2.6.6-.9,1.35-1.7,2.25-2.4s1.9-1.25,3-1.65c1.1-.433,2.25-.65,3.45-.65Zm27.199,0c1.433,0,2.766.25,4,.75c1.233.467,2.3,1.083,3.2,1.85.933.767,1.65,1.567,2.15,2.4.533.833.8,1.617.8,2.35l-.95-.6v-4.35c0-.567.183-1.033.55-1.4.366-.4.85-.6,1.45-.6.566,0,1.033.2,1.4.6.4.367.6.833.6,1.4v21.9c0,2.733-.584,5-1.75,6.8-1.134,1.8-2.667,3.15-4.6,4.05-1.934.9-4.1,1.35-6.5,1.35-1,0-2.1-.133-3.3-.4s-2.267-.6-3.2-1c-.934-.367-1.534-.75-1.8-1.15-.5-.333-.817-.717-.95-1.15-.1-.4-.017-.783.25-1.15.3-.467.683-.7,1.15-.7.5,0,1.116.15,1.85.45.3.1.766.267,1.4.5.666.233,1.4.433,2.2.6.833.2,1.65.3,2.45.3c2.833,0,5-.75,6.5-2.25c1.533-1.467,2.3-3.417,2.3-5.85v-4.65l.55.25c-.2.933-.617,1.8-1.25,2.6-.6.8-1.35,1.517-2.25,2.15-.867.6-1.834,1.083-2.9,1.45-1.067.333-2.15.5-3.25.5-2.334,0-4.434-.583-6.3-1.75-1.867-1.167-3.35-2.767-4.45-4.8-1.067-2.033-1.6-4.35-1.6-6.95c0-2.633.533-4.967,1.6-7c1.1-2.033,2.566-3.617,4.4-4.75c1.866-1.167,3.95-1.75,6.25-1.75Zm.5,3.7c-1.7,0-3.234.433-4.6,1.3-1.334.833-2.384,1.983-3.15,3.45-.734,1.467-1.1,3.15-1.1,5.05c0,1.833.366,3.5,1.1,5c.766,1.467,1.816,2.633,3.15,3.5c1.366.867,2.9,1.3,4.6,1.3c1.733,0,3.266-.417,4.6-1.25c1.333-.867,2.383-2.033,3.15-3.5.766-1.467,1.15-3.15,1.15-5.05c0-1.933-.384-3.633-1.15-5.1-.767-1.467-1.817-2.617-3.15-3.45-1.334-.833-2.867-1.25-4.6-1.25Zm23.945,20.75c0,.567-.2,1.05-.6,1.45-.367.4-.833.6-1.4.6-.6,0-1.083-.2-1.45-.6s-.55-.883-.55-1.45v-22.2c0-.567.183-1.033.55-1.4.4-.4.883-.6,1.45-.6s1.033.2,1.4.6c.4.367.6.833.6,1.4v22.2Zm-2-27.55c-.833,0-1.45-.167-1.85-.5s-.6-.85-.6-1.55v-.7c0-.7.217-1.217.65-1.55s1.05-.5,1.85-.5s1.4.167,1.8.5.6.85.6,1.55v.7c0,.7-.217,1.217-.65,1.55-.4.333-1,.5-1.8.5Zm22.035,3.1c2.267,0,4.05.467,5.35,1.4s2.217,2.183,2.75,3.75c.567,1.567.85,3.317.85,5.25v14.05c0,.567-.2,1.05-.6,1.45-.366.4-.833.6-1.4.6-.566,0-1.05-.2-1.45-.6-.366-.4-.55-.883-.55-1.45v-13.95c0-1.267-.2-2.4-.6-3.4-.366-1.033-1-1.85-1.9-2.45-.866-.633-2.066-.95-3.6-.95-1.4,0-2.683.317-3.85.95-1.166.6-2.1,1.417-2.8,2.45-.7,1-1.05,2.133-1.05,3.4v13.95c0,.567-.2,1.05-.6,1.45-.366.4-.833.6-1.4.6-.566,0-1.05-.2-1.45-.6-.366-.4-.55-.883-.55-1.45v-21.8c0-.567.184-1.033.55-1.4.4-.4.884-.6,1.45-.6.6,0,1.084.2,1.45.6.367.367.55.833.55,1.4v3.55l-1,1.1c.167-.867.55-1.733,1.15-2.6.6-.9,1.35-1.7,2.25-2.4s1.9-1.25,3-1.65c1.1-.433,2.25-.65,3.45-.65Zm28.299,27c-2.666,0-5-.567-7-1.7s-3.566-2.683-4.7-4.65c-1.1-2-1.65-4.3-1.65-6.9c0-2.9.567-5.367,1.7-7.4c1.167-2.067,2.667-3.633,4.5-4.7c1.867-1.1,3.834-1.65,5.9-1.65c1.534,0,3.017.283,4.45.85c1.434.567,2.7,1.4,3.8,2.5c1.1,1.067,1.984,2.367,2.65,3.9.667,1.5,1.017,3.183,1.05,5.05c0,.533-.2.983-.6,1.35s-.866.55-1.4.55h-19.75l-.9-3.45h19.25l-.8.7v-1.1c-.133-1.367-.6-2.533-1.4-3.5-.766-1-1.716-1.767-2.85-2.3-1.1-.533-2.266-.8-3.5-.8-1,0-2,.183-3,.55-.966.333-1.85.9-2.65,1.7-.766.767-1.4,1.767-1.9,3-.466,1.233-.7,2.717-.7,4.45c0,1.933.384,3.633,1.15,5.1.8,1.467,1.9,2.633,3.3,3.5c1.4.833,3.034,1.25,4.9,1.25c1.167,0,2.184-.15,3.05-.45.867-.3,1.617-.667,2.25-1.1.634-.467,1.167-.933,1.6-1.4.434-.3.85-.45,1.25-.45.5,0,.9.167,1.2.5.334.333.5.733.5,1.2c0,.567-.266,1.067-.8,1.5-.933,1.033-2.2,1.95-3.8,2.75-1.6.767-3.3,1.15-5.1,1.15Zm28.663,0c-2.667,0-5-.567-7-1.7s-3.567-2.683-4.7-4.65c-1.1-2-1.65-4.3-1.65-6.9c0-2.9.566-5.367,1.7-7.4c1.166-2.067,2.666-3.633,4.5-4.7c1.866-1.1,3.833-1.65,5.9-1.65c1.533,0,3.016.283,4.45.85c1.433.567,2.7,1.4,3.8,2.5c1.1,1.067,1.983,2.367,2.65,3.9.666,1.5,1.016,3.183,1.05,5.05c0,.533-.2.983-.6,1.35s-.867.55-1.4.55h-19.75l-.9-3.45h19.25l-.8.7v-1.1c-.134-1.367-.6-2.533-1.4-3.5-.767-1-1.717-1.767-2.85-2.3-1.1-.533-2.267-.8-3.5-.8-1,0-2,.183-3,.55-.967.333-1.85.9-2.65,1.7-.767.767-1.4,1.767-1.9,3-.467,1.233-.7,2.717-.7,4.45c0,1.933.383,3.633,1.15,5.1.8,1.467,1.9,2.633,3.3,3.5c1.4.833,3.033,1.25,4.9,1.25c1.166,0,2.183-.15,3.05-.45.866-.3,1.616-.667,2.25-1.1.633-.467,1.166-.933,1.6-1.4.433-.3.85-.45,1.25-.45.5,0,.9.167,1.2.5.333.333.5.733.5,1.2c0,.567-.267,1.067-.8,1.5-.934,1.033-2.2,1.95-3.8,2.75-1.6.767-3.3,1.15-5.1,1.15Zm18.712-.5c-.567,0-1.05-.2-1.45-.6-.367-.4-.55-.883-.55-1.45v-21.8c0-.567.183-1.033.55-1.4.4-.4.883-.6,1.45-.6.6,0,1.083.2,1.45.6.366.367.55.833.55,1.4v6.6l-.6-1.05c.2-1.033.55-2.033,1.05-3c.533-1,1.2-1.883,2-2.65.8-.8,1.716-1.417,2.75-1.85c1.033-.467,2.166-.7,3.4-.7.733,0,1.4.183,2,.55.633.333.95.817.95,1.45c0,.7-.184,1.217-.55,1.55-.367.333-.784.5-1.25.5-.434,0-.85-.083-1.25-.25-.4-.2-.9-.3-1.5-.3-.834,0-1.667.233-2.5.7-.8.433-1.55,1.067-2.25,1.9-.667.833-1.217,1.783-1.65,2.85-.4,1.033-.6,2.15-.6,3.35v12.15c0,.567-.2,1.05-.6,1.45-.367.4-.834.6-1.4.6ZM52.45,180.5c2.2667,0,4.3.583,6.1,1.75c1.8,1.133,3.2167,2.7,4.25,4.7c1.0667,2,1.6,4.317,1.6,6.95s-.5333,4.967-1.6,7c-1.0333,2.033-2.45,3.65-4.25,4.85-1.7667,1.167-3.7667,1.75-6,1.75-1.2333,0-2.4-.183-3.5-.55-1.0667-.4-2.05-.917-2.95-1.55-.8667-.667-1.6-1.383-2.2-2.15-.6-.8-1.0333-1.583-1.3-2.35l1.1-.7v5c0,.567-.1833,1.05-.55,1.45s-.85.6-1.45.6c-.5667,0-1.05-.183-1.45-.55-.3667-.4-.55-.9-.55-1.5v-33.15c0-.567.1833-1.05.55-1.45.4-.4.8833-.6,1.45-.6.6,0,1.0833.2,1.45.6s.55.883.55,1.45v15.4l-.75-.4c.2333-.833.6333-1.633,1.2-2.4.6-.8,1.3167-1.5,2.15-2.1.8667-.633,1.8167-1.133,2.85-1.5c1.0667-.367,2.1667-.55,3.3-.55ZM52,184.2c-1.6667,0-3.15.417-4.45,1.25-1.2667.833-2.2667,1.983-3,3.45-.7,1.467-1.05,3.133-1.05,5s.35,3.55,1.05,5.05c.7333,1.5,1.7333,2.683,3,3.55c1.3.867,2.7833,1.3,4.45,1.3s3.1333-.433,4.4-1.3s2.2667-2.05,3-3.55s1.1-3.183,1.1-5.05-.3667-3.533-1.1-5-1.7333-2.617-3-3.45-2.7333-1.25-4.4-1.25Zm39.7129-3.3c.5667,0,1.0333.2,1.4.6.4.367.6.833.6,1.4v22.05c0,.567-.2,1.05-.6,1.45-.3667.4-.8333.6-1.4.6-.6,0-1.0833-.2-1.45-.6s-.55-.883-.55-1.45v-4.75l.95-.1c0,.733-.25,1.533-.75,2.4s-1.1833,1.683-2.05,2.45c-.8667.733-1.9,1.35-3.1,1.85-1.1667.467-2.4333.7-3.8.7-2.2667,0-4.3-.583-6.1-1.75-1.8-1.2-3.2333-2.817-4.3-4.85-1.0333-2.033-1.55-4.35-1.55-6.95c0-2.633.5167-4.95,1.55-6.95c1.0667-2.033,2.5-3.617,4.3-4.75c1.8-1.167,3.8-1.75,6-1.75c1.4333,0,2.7667.233,4,.7s2.3,1.1,3.2,1.9c.9333.8,1.65,1.683,2.15,2.65.5333.967.8,1.933.8,2.9l-1.3-.3v-5.45c0-.567.1833-1.033.55-1.4.3667-.4.85-.6,1.45-.6Zm-10.3,22.9c1.6667,0,3.1333-.433,4.4-1.3c1.3-.867,2.3-2.033,3-3.5.7333-1.5,1.1-3.183,1.1-5.05c0-1.833-.3667-3.483-1.1-4.95-.7-1.5-1.7-2.667-3-3.5-1.2667-.867-2.7333-1.3-4.4-1.3-1.6333,0-3.1.417-4.4,1.25-1.2667.833-2.2667,1.983-3,3.45s-1.1,3.15-1.1,5.05c0,1.867.35,3.55,1.05,5.05.7333,1.467,1.7333,2.633,3,3.5c1.3.867,2.7833,1.3,4.45,1.3Zm18.2629-.9c-.3-.433-.4334-.883-.4-1.35.0333-.5.3166-.933.8502-1.3.333-.233.716-.333,1.15-.3.466.033.883.25,1.25.65.933,1.1,2,1.983,3.2,2.65c1.2.633,2.666.95,4.4.95.8-.033,1.6-.167,2.4-.4s1.466-.633,2-1.2c.566-.6.85-1.383.85-2.35c0-.933-.284-1.667-.85-2.2-.567-.567-1.3-1.017-2.2-1.35-.9-.367-1.884-.683-2.95-.95-1.1-.3-2.184-.633-3.25-1-1.067-.4-2.034-.883-2.9-1.45-.834-.6-1.517-1.333-2.05-2.2-.5-.9-.75-1.983-.75-3.25c0-1.5.4-2.8,1.2-3.9.833-1.1,1.933-1.95,3.3-2.55c1.4-.6,2.916-.9,4.55-.9.933,0,1.9.117,2.9.35c1.033.2,2.033.567,3,1.1.966.5,1.816,1.2,2.55,2.1.3.333.466.75.5,1.25.033.5-.184.95-.65,1.35-.367.267-.784.383-1.25.35-.434-.033-.8-.2-1.1-.5-.7-.833-1.584-1.467-2.65-1.9-1.034-.467-2.184-.7-3.45-.7-.8,0-1.584.117-2.35.35-.767.233-1.417.633-1.95,1.2-.5.533-.75,1.283-.75,2.25.033.9.333,1.633.9,2.2.566.567,1.333,1.033,2.3,1.4.966.333,2.033.667,3.2,1c1.066.267,2.083.583,3.05.95c1,.333,1.9.783,2.7,1.35s1.433,1.3,1.9,2.2c.466.867.7,1.967.7,3.3c0,1.533-.434,2.867-1.3,4-.867,1.1-2.017,1.95-3.45,2.55-1.4.567-2.917.85-4.55.85-1.834,0-3.65-.35-5.45-1.05-1.767-.7-3.3-1.883-4.6002-3.55Zm37.0812,4.6c-2.666,0-5-.567-7-1.7s-3.566-2.683-4.7-4.65c-1.1-2-1.65-4.3-1.65-6.9c0-2.9.567-5.367,1.7-7.4c1.167-2.067,2.667-3.633,4.5-4.7c1.867-1.1,3.834-1.65,5.9-1.65c1.534,0,3.017.283,4.45.85c1.434.567,2.7,1.4,3.8,2.5c1.1,1.067,1.984,2.367,2.65,3.9.667,1.5,1.017,3.183,1.05,5.05c0,.533-.2.983-.6,1.35s-.866.55-1.4.55h-19.75l-.9-3.45h19.25l-.8.7v-1.1c-.133-1.367-.6-2.533-1.4-3.5-.766-1-1.716-1.767-2.85-2.3-1.1-.533-2.266-.8-3.5-.8-1,0-2,.183-3,.55-.966.333-1.85.9-2.65,1.7-.766.767-1.4,1.767-1.9,3-.466,1.233-.7,2.717-.7,4.45c0,1.933.384,3.633,1.15,5.1.8,1.467,1.9,2.633,3.3,3.5c1.4.833,3.034,1.25,4.9,1.25c1.167,0,2.184-.15,3.05-.45.867-.3,1.617-.667,2.25-1.1.634-.467,1.167-.933,1.6-1.4.434-.3.85-.45,1.25-.45.5,0,.9.167,1.2.5.334.333.5.733.5,1.2c0,.567-.266,1.067-.8,1.5-.933,1.033-2.2,1.95-3.8,2.75-1.6.767-3.3,1.15-5.1,1.15ZM174.77,170c.566,0,1.033.2,1.4.6.4.367.6.833.6,1.4v32.95c0,.567-.2,1.05-.6,1.45-.367.4-.834.6-1.4.6-.6,0-1.084-.2-1.45-.6-.367-.4-.55-.883-.55-1.45v-4.75l.95-.35c0,.8-.25,1.65-.75,2.55-.5.867-1.184,1.683-2.05,2.45-.867.767-1.9,1.4-3.1,1.9-1.167.5-2.434.75-3.8.75-2.234,0-4.267-.583-6.1-1.75-1.8-1.167-3.234-2.767-4.3-4.8-1.034-2.033-1.55-4.35-1.55-6.95c0-2.633.516-4.967,1.55-7c1.066-2.033,2.5-3.617,4.3-4.75c1.8-1.167,3.8-1.75,6-1.75c1.4,0,2.716.233,3.95.7c1.233.467,2.3,1.1,3.2,1.9.933.8,1.666,1.683,2.2,2.65.533.967.8,1.933.8,2.9l-1.3-.3v-16.35c0-.567.183-1.033.55-1.4.366-.4.85-.6,1.45-.6Zm-10.3,33.8c1.666,0,3.133-.417,4.4-1.25c1.3-.867,2.3-2.033,3-3.5.733-1.5,1.1-3.183,1.1-5.05c0-1.9-.367-3.583-1.1-5.05-.7-1.467-1.7-2.617-3-3.45-1.267-.867-2.734-1.3-4.4-1.3-1.634,0-3.1.433-4.4,1.3-1.267.833-2.267,1.983-3,3.45-.734,1.467-1.1,3.15-1.1,5.05c0,1.833.366,3.5,1.1,5c.733,1.467,1.733,2.633,3,3.5c1.3.867,2.766,1.3,4.4,1.3Zm37.332,1.15c0,.567-.2,1.05-.6,1.45-.367.4-.833.6-1.4.6-.6,0-1.083-.2-1.45-.6s-.55-.883-.55-1.45v-22.2c0-.567.183-1.033.55-1.4.4-.4.883-.6,1.45-.6s1.033.2,1.4.6c.4.367.6.833.6,1.4v22.2Zm-2-27.55c-.833,0-1.45-.167-1.85-.5s-.6-.85-.6-1.55v-.7c0-.7.217-1.217.65-1.55s1.05-.5,1.85-.5s1.4.167,1.8.5.6.85.6,1.55v.7c0,.7-.217,1.217-.65,1.55-.4.333-1,.5-1.8.5Zm22.035,3.1c2.267,0,4.05.467,5.35,1.4s2.217,2.183,2.75,3.75c.567,1.567.85,3.317.85,5.25v14.05c0,.567-.2,1.05-.6,1.45-.367.4-.833.6-1.4.6s-1.05-.2-1.45-.6c-.367-.4-.55-.883-.55-1.45v-13.95c0-1.267-.2-2.4-.6-3.4-.367-1.033-1-1.85-1.9-2.45-.867-.633-2.067-.95-3.6-.95-1.4,0-2.683.317-3.85.95-1.167.6-2.1,1.417-2.8,2.45-.7,1-1.05,2.133-1.05,3.4v13.95c0,.567-.2,1.05-.6,1.45-.367.4-.833.6-1.4.6s-1.05-.2-1.45-.6c-.367-.4-.55-.883-.55-1.45v-21.8c0-.567.183-1.033.55-1.4.4-.4.883-.6,1.45-.6.6,0,1.083.2,1.45.6.367.367.55.833.55,1.4v3.55l-1,1.1c.167-.867.55-1.733,1.15-2.6.6-.9,1.35-1.7,2.25-2.4s1.9-1.25,3-1.65c1.1-.433,2.25-.65,3.45-.65Zm50.119,22.55c.567,0,1.05.2,1.45.6.4.367.6.833.6,1.4s-.2,1.033-.6,1.4-.883.55-1.45.55h-17.3c-.567,0-1.05-.2-1.45-.6-.367-.4-.55-.883-.55-1.45v-30.95c0-.567.2-1.033.6-1.4.4-.4.9-.6,1.5-.6.567,0,1.05.2,1.45.6.4.367.6.833.6,1.4v29.95l-1-.9h16.15ZM303.605,194c0,2.6-.583,4.917-1.75,6.95-1.133,2.033-2.683,3.633-4.65,4.8-1.933,1.167-4.116,1.75-6.55,1.75-2.433,0-4.633-.583-6.6-1.75-1.966-1.167-3.533-2.767-4.7-4.8-1.133-2.033-1.7-4.35-1.7-6.95s.567-4.917,1.7-6.95c1.167-2.033,2.734-3.633,4.7-4.8c1.967-1.167,4.167-1.75,6.6-1.75c2.434,0,4.617.583,6.55,1.75c1.967,1.167,3.517,2.767,4.65,4.8c1.167,2.033,1.75,4.35,1.75,6.95Zm-4,0c0-1.933-.4-3.633-1.2-5.1-.766-1.467-1.833-2.617-3.2-3.45-1.333-.833-2.85-1.25-4.55-1.25s-3.233.417-4.6,1.25c-1.333.833-2.4,1.983-3.2,3.45s-1.2,3.167-1.2,5.1c0,1.9.4,3.583,1.2,5.05s1.867,2.633,3.2,3.5c1.367.833,2.9,1.25,4.6,1.25s3.217-.417,4.55-1.25c1.367-.867,2.434-2.033,3.2-3.5.8-1.467,1.2-3.15,1.2-5.05Zm8.567,8.9c-.3-.433-.433-.883-.4-1.35.033-.5.317-.933.85-1.3.333-.233.717-.333,1.15-.3.467.033.883.25,1.25.65.933,1.1,2,1.983,3.2,2.65c1.2.633,2.667.95,4.4.95.8-.033,1.6-.167,2.4-.4s1.467-.633,2-1.2c.567-.6.85-1.383.85-2.35c0-.933-.283-1.667-.85-2.2-.567-.567-1.3-1.017-2.2-1.35-.9-.367-1.883-.683-2.95-.95-1.1-.3-2.183-.633-3.25-1-1.067-.4-2.033-.883-2.9-1.45-.833-.6-1.517-1.333-2.05-2.2-.5-.9-.75-1.983-.75-3.25c0-1.5.4-2.8,1.2-3.9.833-1.1,1.933-1.95,3.3-2.55c1.4-.6,2.917-.9,4.55-.9.933,0,1.9.117,2.9.35c1.033.2,2.033.567,3,1.1.967.5,1.817,1.2,2.55,2.1.3.333.467.75.5,1.25s-.183.95-.65,1.35c-.367.267-.783.383-1.25.35-.433-.033-.8-.2-1.1-.5-.7-.833-1.583-1.467-2.65-1.9-1.033-.467-2.183-.7-3.45-.7-.8,0-1.583.117-2.35.35s-1.417.633-1.95,1.2c-.5.533-.75,1.283-.75,2.25.033.9.333,1.633.9,2.2s1.333,1.033,2.3,1.4c.967.333,2.033.667,3.2,1c1.067.267,2.083.583,3.05.95c1,.333,1.9.783,2.7,1.35s1.433,1.3,1.9,2.2c.467.867.7,1.967.7,3.3c0,1.533-.433,2.867-1.3,4-.867,1.1-2.017,1.95-3.45,2.55-1.4.567-2.917.85-4.55.85-1.833,0-3.65-.35-5.45-1.05-1.767-.7-3.3-1.883-4.6-3.55Zm51.701-25.7l-11.75,28.6c-.133.4-.367.717-.7.95s-.683.35-1.05.35c-.633,0-1.1-.167-1.4-.5s-.45-.733-.45-1.2c-.033-.233,0-.483.1-.75l12.95-31.5c.167-.467.417-.8.75-1c.367-.233.767-.333,1.2-.3.433,0,.817.117,1.15.35.367.233.617.55.75.95l12.9,31.2c.1.267.15.533.15.8c0,.6-.2,1.083-.6,1.45-.4.333-.85.5-1.35.5-.4,0-.767-.117-1.1-.35s-.583-.567-.75-1l-11.9-28.6l1.1.05Zm-9.25,20.45l1.7-3.9h14.85l.75,3.9h-17.3Zm41.478-17.15c2.266,0,4.05.467,5.35,1.4s2.216,2.183,2.75,3.75c.566,1.567.85,3.317.85,5.25v14.05c0,.567-.2,1.05-.6,1.45-.367.4-.834.6-1.4.6-.567,0-1.05-.2-1.45-.6-.367-.4-.55-.883-.55-1.45v-13.95c0-1.267-.2-2.4-.6-3.4-.367-1.033-1-1.85-1.9-2.45-.867-.633-2.067-.95-3.6-.95-1.4,0-2.684.317-3.85.95-1.167.6-2.1,1.417-2.8,2.45-.7,1-1.05,2.133-1.05,3.4v13.95c0,.567-.2,1.05-.6,1.45-.367.4-.834.6-1.4.6-.567,0-1.05-.2-1.45-.6-.367-.4-.55-.883-.55-1.45v-21.8c0-.567.183-1.033.55-1.4.4-.4.883-.6,1.45-.6.6,0,1.083.2,1.45.6.366.367.55.833.55,1.4v3.55l-1,1.1c.166-.867.55-1.733,1.15-2.6.6-.9,1.35-1.7,2.25-2.4s1.9-1.25,3-1.65c1.1-.433,2.25-.65,3.45-.65Zm27.199,0c1.433,0,2.767.25,4,.75c1.233.467,2.3,1.083,3.2,1.85.933.767,1.65,1.567,2.15,2.4.533.833.8,1.617.8,2.35l-.95-.6v-4.35c0-.567.183-1.033.55-1.4.367-.4.85-.6,1.45-.6.567,0,1.033.2,1.4.6.4.367.6.833.6,1.4v21.9c0,2.733-.583,5-1.75,6.8-1.133,1.8-2.667,3.15-4.6,4.05s-4.1,1.35-6.5,1.35c-1,0-2.1-.133-3.3-.4s-2.267-.6-3.2-1c-.933-.367-1.533-.75-1.8-1.15-.5-.333-.817-.717-.95-1.15-.1-.4-.017-.783.25-1.15.3-.467.683-.7,1.15-.7.5,0,1.117.15,1.85.45.3.1.767.267,1.4.5.667.233,1.4.433,2.2.6.833.2,1.65.3,2.45.3c2.833,0,5-.75,6.5-2.25c1.533-1.467,2.3-3.417,2.3-5.85v-4.65l.55.25c-.2.933-.617,1.8-1.25,2.6-.6.8-1.35,1.517-2.25,2.15-.867.6-1.833,1.083-2.9,1.45-1.067.333-2.15.5-3.25.5-2.333,0-4.433-.583-6.3-1.75s-3.35-2.767-4.45-4.8c-1.067-2.033-1.6-4.35-1.6-6.95c0-2.633.533-4.967,1.6-7c1.1-2.033,2.567-3.617,4.4-4.75c1.867-1.167,3.95-1.75,6.25-1.75Zm.5,3.7c-1.7,0-3.233.433-4.6,1.3-1.333.833-2.383,1.983-3.15,3.45-.733,1.467-1.1,3.15-1.1,5.05c0,1.833.367,3.5,1.1,5c.767,1.467,1.817,2.633,3.15,3.5c1.367.867,2.9,1.3,4.6,1.3c1.733,0,3.267-.417,4.6-1.25c1.333-.867,2.383-2.033,3.15-3.5s1.15-3.15,1.15-5.05c0-1.933-.383-3.633-1.15-5.1s-1.817-2.617-3.15-3.45-2.867-1.25-4.6-1.25Zm31.069,23.3c-2.667,0-5-.567-7-1.7s-3.567-2.683-4.7-4.65c-1.1-2-1.65-4.3-1.65-6.9c0-2.9.566-5.367,1.7-7.4c1.166-2.067,2.666-3.633,4.5-4.7c1.866-1.1,3.833-1.65,5.9-1.65c1.533,0,3.016.283,4.45.85c1.433.567,2.7,1.4,3.8,2.5c1.1,1.067,1.983,2.367,2.65,3.9.666,1.5,1.016,3.183,1.05,5.05c0,.533-.2.983-.6,1.35s-.867.55-1.4.55h-19.75l-.9-3.45h19.25l-.8.7v-1.1c-.134-1.367-.6-2.533-1.4-3.5-.767-1-1.717-1.767-2.85-2.3-1.1-.533-2.267-.8-3.5-.8-1,0-2,.183-3,.55-.967.333-1.85.9-2.65,1.7-.767.767-1.4,1.767-1.9,3-.467,1.233-.7,2.717-.7,4.45c0,1.933.383,3.633,1.15,5.1.8,1.467,1.9,2.633,3.3,3.5c1.4.833,3.033,1.25,4.9,1.25c1.166,0,2.183-.15,3.05-.45.866-.3,1.616-.667,2.25-1.1.633-.467,1.166-.933,1.6-1.4.433-.3.85-.45,1.25-.45.5,0,.9.167,1.2.5.333.333.5.733.5,1.2c0,.567-.267,1.067-.8,1.5-.934,1.033-2.2,1.95-3.8,2.75-1.6.767-3.3,1.15-5.1,1.15Zm21.112-2.55c0,.567-.2,1.05-.6,1.45s-.883.6-1.45.6-1.033-.2-1.4-.6-.55-.883-.55-1.45v-32.95c0-.567.183-1.033.55-1.4.4-.4.883-.6,1.45-.6.6,0,1.083.2,1.45.6.367.367.55.833.55,1.4v32.95Zm19.22,2.55c-2.667,0-5-.567-7-1.7s-3.567-2.683-4.7-4.65c-1.1-2-1.65-4.3-1.65-6.9c0-2.9.566-5.367,1.7-7.4c1.166-2.067,2.666-3.633,4.5-4.7c1.866-1.1,3.833-1.65,5.9-1.65c1.533,0,3.016.283,4.45.85c1.433.567,2.7,1.4,3.8,2.5c1.1,1.067,1.983,2.367,2.65,3.9.666,1.5,1.016,3.183,1.05,5.05c0,.533-.2.983-.6,1.35s-.867.55-1.4.55h-19.75l-.9-3.45h19.25l-.8.7v-1.1c-.134-1.367-.6-2.533-1.4-3.5-.767-1-1.717-1.767-2.85-2.3-1.1-.533-2.267-.8-3.5-.8-1,0-2,.183-3,.55-.967.333-1.85.9-2.65,1.7-.767.767-1.4,1.767-1.9,3-.467,1.233-.7,2.717-.7,4.45c0,1.933.383,3.633,1.15,5.1.8,1.467,1.9,2.633,3.3,3.5c1.4.833,3.033,1.25,4.9,1.25c1.166,0,2.183-.15,3.05-.45.866-.3,1.616-.667,2.25-1.1.633-.467,1.166-.933,1.6-1.4.433-.3.85-.45,1.25-.45.5,0,.9.167,1.2.5.333.333.5.733.5,1.2c0,.567-.267,1.067-.8,1.5-.934,1.033-2.2,1.95-3.8,2.75-1.6.767-3.3,1.15-5.1,1.15Zm15.262-4.6c-.3-.433-.433-.883-.4-1.35.033-.5.317-.933.85-1.3.333-.233.717-.333,1.15-.3.467.033.883.25,1.25.65.933,1.1,2,1.983,3.2,2.65c1.2.633,2.667.95,4.4.95.8-.033,1.6-.167,2.4-.4s1.467-.633,2-1.2c.567-.6.85-1.383.85-2.35c0-.933-.283-1.667-.85-2.2-.567-.567-1.3-1.017-2.2-1.35-.9-.367-1.883-.683-2.95-.95-1.1-.3-2.183-.633-3.25-1-1.067-.4-2.033-.883-2.9-1.45-.833-.6-1.517-1.333-2.05-2.2-.5-.9-.75-1.983-.75-3.25c0-1.5.4-2.8,1.2-3.9.833-1.1,1.933-1.95,3.3-2.55c1.4-.6,2.917-.9,4.55-.9.933,0,1.9.117,2.9.35c1.033.2,2.033.567,3,1.1.967.5,1.817,1.2,2.55,2.1.3.333.467.75.5,1.25s-.183.95-.65,1.35c-.367.267-.783.383-1.25.35-.433-.033-.8-.2-1.1-.5-.7-.833-1.583-1.467-2.65-1.9-1.033-.467-2.183-.7-3.45-.7-.8,0-1.583.117-2.35.35s-1.417.633-1.95,1.2c-.5.533-.75,1.283-.75,2.25.033.9.333,1.633.9,2.2s1.333,1.033,2.3,1.4c.967.333,2.033.667,3.2,1c1.067.267,2.083.583,3.05.95c1,.333,1.9.783,2.7,1.35s1.433,1.3,1.9,2.2c.467.867.7,1.967.7,3.3c0,1.533-.433,2.867-1.3,4-.867,1.1-2.017,1.95-3.45,2.55-1.4.567-2.917.85-4.55.85-1.833,0-3.65-.35-5.45-1.05-1.767-.7-3.3-1.883-4.6-3.55Zm26.332,4.05c-.7,0-1.25-.2-1.65-.6-.367-.4-.55-.95-.55-1.65v-1c0-.733.183-1.3.55-1.7.4-.4.95-.6,1.65-.6h.4c.733,0,1.283.2,1.65.6.366.4.55.967.55,1.7v1c0,.7-.184,1.25-.55,1.65-.367.4-.917.6-1.65.6h-.4Z" opacity="0"/><path id="eeOL2CGyfQH21" d="M42.5,46c.5667,0,1.05.2,1.45.6.4.3667.6.85.6,1.45v30.9c0,.5667-.2167,1.05-.65,1.45-.4.4-.8833.6-1.45.6-.6333,0-1.1333-.2-1.5-.6s-.55-.8833-.55-1.45v-30.9c0-.6.2-1.0833.6-1.45.4-.4.9-.6,1.5-.6Zm23.05,0c.6,0,1.0833.2,1.45.6.4.3667.6.85.6,1.45v30.9c0,.5667-.2,1.05-.6,1.45s-.9.6-1.5.6c-.5667,0-1.05-.2-1.45-.6s-.6-.8833-.6-1.45v-30.9c0-.6.2-1.0833.6-1.45.4333-.4.9333-.6,1.5-.6ZM42.3,61.25h23.3l-.05,3.9h-23.4l.15-3.9ZM87.6363,81.5c-2.6666,0-5-.5667-7-1.7s-3.5666-2.6833-4.7-4.65c-1.1-2-1.65-4.3-1.65-6.9c0-2.9.5667-5.3667,1.7-7.4c1.1667-2.0667,2.6667-3.6333,4.5-4.7c1.8667-1.1,3.8334-1.65,5.9-1.65c1.5334,0,3.0167.2833,4.45.85c1.4334.5667,2.7,1.4,3.8,2.5c1.1,1.0667,1.9834,2.3667,2.65,3.9.6667,1.5,1.0167,3.1833,1.05,5.05c0,.5333-.2.9833-.6,1.35s-.8666.55-1.4.55h-19.75l-.9-3.45h19.25l-.8.7v-1.1c-.1333-1.3667-.6-2.5333-1.4-3.5-.7666-1-1.7166-1.7667-2.85-2.3-1.1-.5333-2.2666-.8-3.5-.8-1,0-2,.1833-3,.55-.9666.3333-1.85.9-2.65,1.7-.7666.7667-1.4,1.7667-1.9,3-.4666,1.2333-.7,2.7167-.7,4.45c0,1.9333.3834,3.6333,1.15,5.1.8,1.4667,1.9,2.6333,3.3,3.5c1.4.8333,3.0334,1.25,4.9,1.25c1.1667,0,2.1834-.15,3.05-.45.8667-.3,1.6167-.6667,2.25-1.1.6334-.4667,1.1667-.9333,1.6-1.4.4334-.3.85-.45,1.25-.45.5,0,.9.1667,1.2.5.3334.3333.5.7333.5,1.2c0,.5667-.2666,1.0667-.8,1.5-.9333,1.0333-2.2,1.95-3.8,2.75-1.6.7667-3.3,1.15-5.1,1.15ZM123.454,54.75c.567,0,1.034.2,1.4.6.4.3667.6.8333.6,1.4v21.8c0,2.8-.55,5.1167-1.65,6.95-1.1,1.8667-2.583,3.25-4.45,4.15-1.833.9-3.916,1.35-6.25,1.35-1.3,0-2.55-.1333-3.75-.4s-2.183-.6167-2.95-1.05c-.633-.3-1.083-.6833-1.35-1.15-.233-.4333-.266-.9-.1-1.4.234-.6.567-1.0167,1-1.25.467-.2333.95-.2333,1.45,0c.534.2333,1.3.55,2.3.95c1.034.4333,2.184.65,3.45.65c1.734,0,3.217-.3333,4.45-1c1.234-.6667,2.184-1.65,2.85-2.95.667-1.2667,1-2.85,1-4.75v-3.55l.6,1.25c-.533,1.0333-1.25,1.9333-2.15,2.7s-1.933,1.3667-3.1,1.8c-1.166.4333-2.45.65-3.85.65-1.9,0-3.516-.4-4.85-1.2-1.3-.8333-2.3-1.9667-3-3.4-.666-1.4667-1-3.15-1-5.05v-15.1c0-.5667.184-1.0333.55-1.4.4-.4.884-.6,1.45-.6.6,0,1.084.2,1.45.6.367.3667.55.8333.55,1.4v14.2c0,2.2667.5,3.9833,1.5,5.15c1,1.1333,2.55,1.7,4.65,1.7c1.334,0,2.534-.3,3.6-.9c1.1-.6,1.967-1.4167,2.6-2.45.667-1.0667,1-2.2333,1-3.5v-14.2c0-.5667.184-1.0333.55-1.4.367-.4.85-.6,1.45-.6Zm22.18.55h11.75c.533,0,.966.1833,1.3.55.366.3667.55.8.55,1.3c0,.5333-.184.9833-.55,1.35-.334.3333-.767.5-1.3.5h-11.75c-.5,0-.934-.1833-1.3-.55-.367-.3667-.55-.8167-.55-1.35c0-.5.183-.9167.55-1.25.366-.3667.8-.55,1.3-.55Zm5.25-6.8c.566,0,1.033.2,1.4.6.366.3667.55.8333.55,1.4v24.15c0,.8.116,1.4.35,1.8.233.4.533.6833.9.85.4.1333.783.2,1.15.2.333,0,.616-.05.85-.15.266-.1333.566-.2.9-.2.333,0,.633.1667.9.5.3.3.45.7.45,1.2c0,.6-.35,1.1167-1.05,1.55-.7.4-1.484.6-2.35.6-.467,0-1.05-.0333-1.75-.1-.667-.0667-1.334-.2833-2-.65-.667-.3667-1.234-.9667-1.7-1.8-.434-.8667-.65-2.0667-.65-3.6v-24.35c0-.5667.2-1.0333.6-1.4.4-.4.883-.6,1.45-.6Zm26.414,6.25c2.2,0,3.933.4833,5.2,1.45c1.3.9333,2.216,2.2,2.75,3.8.566,1.5667.85,3.3167.85,5.25v13.7c0,.5667-.2,1.05-.6,1.45-.367.4-.834.6-1.4.6-.567,0-1.05-.2-1.45-.6-.367-.4-.55-.8833-.55-1.45v-13.7c0-1.2667-.184-2.4-.55-3.4-.367-1.0333-.984-1.85-1.85-2.45-.834-.6333-1.984-.95-3.45-.95-1.367,0-2.617.3167-3.75.95-1.134.6-2.034,1.4167-2.7,2.45-.667,1-1,2.1333-1,3.4v13.7c0,.5667-.2,1.05-.6,1.45-.367.4-.834.6-1.4.6-.567,0-1.05-.2-1.45-.6-.367-.4-.55-.8833-.55-1.45v-32.95c0-.5667.183-1.0333.55-1.4.4-.4.883-.6,1.45-.6.6,0,1.083.2,1.45.6.366.3667.55.8333.55,1.4v14.95l-1,1.1c.166-.8667.533-1.7333,1.1-2.6.566-.9,1.283-1.7,2.15-2.4.866-.7,1.833-1.25,2.9-1.65c1.066-.4333,2.183-.65,3.35-.65ZM205.459,81.5c-2.667,0-5-.5667-7-1.7s-3.567-2.6833-4.7-4.65c-1.1-2-1.65-4.3-1.65-6.9c0-2.9.566-5.3667,1.7-7.4c1.166-2.0667,2.666-3.6333,4.5-4.7c1.866-1.1,3.833-1.65,5.9-1.65c1.533,0,3.016.2833,4.45.85c1.433.5667,2.7,1.4,3.8,2.5c1.1,1.0667,1.983,2.3667,2.65,3.9.666,1.5,1.016,3.1833,1.05,5.05c0,.5333-.2.9833-.6,1.35s-.867.55-1.4.55h-19.75l-.9-3.45h19.25l-.8.7v-1.1c-.134-1.3667-.6-2.5333-1.4-3.5-.767-1-1.717-1.7667-2.85-2.3-1.1-.5333-2.267-.8-3.5-.8-1,0-2,.1833-3,.55-.967.3333-1.85.9-2.65,1.7-.767.7667-1.4,1.7667-1.9,3-.467,1.2333-.7,2.7167-.7,4.45c0,1.9333.383,3.6333,1.15,5.1.8,1.4667,1.9,2.6333,3.3,3.5c1.4.8333,3.033,1.25,4.9,1.25c1.166,0,2.183-.15,3.05-.45.866-.3,1.616-.6667,2.25-1.1.633-.4667,1.166-.9333,1.6-1.4.433-.3.85-.45,1.25-.45.5,0,.9.1667,1.2.5.333.3333.5.7333.5,1.2c0,.5667-.267,1.0667-.8,1.5-.934,1.0333-2.2,1.95-3.8,2.75-1.6.7667-3.3,1.15-5.1,1.15Zm18.712-.5c-.567,0-1.05-.2-1.45-.6-.367-.4-.55-.8833-.55-1.45v-21.8c0-.5667.183-1.0333.55-1.4.4-.4.883-.6,1.45-.6.6,0,1.083.2,1.45.6.366.3667.55.8333.55,1.4v6.6l-.6-1.05c.2-1.0333.55-2.0333,1.05-3c.533-1,1.2-1.8833,2-2.65.8-.8,1.716-1.4167,2.75-1.85c1.033-.4667,2.166-.7,3.4-.7.733,0,1.4.1833,2,.55.633.3333.95.8167.95,1.45c0,.7-.184,1.2167-.55,1.55-.367.3333-.784.5-1.25.5-.434,0-.85-.0833-1.25-.25-.4-.2-.9-.3-1.5-.3-.834,0-1.667.2333-2.5.7-.8.4333-1.55,1.0667-2.25,1.9-.667.8333-1.217,1.7833-1.65,2.85-.4,1.0333-.6,2.15-.6,3.35v12.15c0,.5667-.2,1.05-.6,1.45-.367.4-.834.6-1.4.6Zm28.895.5c-2.667,0-5-.5667-7-1.7s-3.567-2.6833-4.7-4.65c-1.1-2-1.65-4.3-1.65-6.9c0-2.9.567-5.3667,1.7-7.4c1.167-2.0667,2.667-3.6333,4.5-4.7c1.867-1.1,3.833-1.65,5.9-1.65c1.533,0,3.017.2833,4.45.85s2.7,1.4,3.8,2.5c1.1,1.0667,1.983,2.3667,2.65,3.9.667,1.5,1.017,3.1833,1.05,5.05c0,.5333-.2.9833-.6,1.35s-.867.55-1.4.55h-19.75l-.9-3.45h19.25l-.8.7v-1.1c-.133-1.3667-.6-2.5333-1.4-3.5-.767-1-1.717-1.7667-2.85-2.3-1.1-.5333-2.267-.8-3.5-.8-1,0-2,.1833-3,.55-.967.3333-1.85.9-2.65,1.7-.767.7667-1.4,1.7667-1.9,3-.467,1.2333-.7,2.7167-.7,4.45c0,1.9333.383,3.6333,1.15,5.1.8,1.4667,1.9,2.6333,3.3,3.5c1.4.8333,3.033,1.25,4.9,1.25c1.167,0,2.183-.15,3.05-.45s1.617-.6667,2.25-1.1c.633-.4667,1.167-.9333,1.6-1.4.433-.3.85-.45,1.25-.45.5,0,.9.1667,1.2.5.333.3333.5.7333.5,1.2c0,.5667-.267,1.0667-.8,1.5-.933,1.0333-2.2,1.95-3.8,2.75-1.6.7667-3.3,1.15-5.1,1.15Zm18.362-10.7c-.8,0-1.233-.45-1.3-1.35l-.85-20.85c-.033-.7667.133-1.3833.5-1.85.367-.5.9-.75,1.6-.75.733,0,1.283.25,1.65.75.367.4667.533,1.0833.5,1.85l-.85,20.85c-.067.9-.483,1.35-1.25,1.35Zm-.25,10.2c-.7,0-1.233-.2-1.6-.6-.367-.4333-.55-1-.55-1.7v-1c0-.7.183-1.25.55-1.65s.9-.6,1.6-.6h.45c.7,0,1.233.2,1.6.6s.55.95.55,1.65v1c0,.7-.183,1.2667-.55,1.7-.367.4-.9.6-1.6.6h-.45Z" opacity="0" fill="#6a9b8f"/>
<script><![CDATA[
!function(t,n){"object"==typeof exports&&"undefined"!=typeof module?module.exports=n():"function"==typeof __SVGATOR_DEFINE__&&__SVGATOR_DEFINE__.amd?__SVGATOR_DEFINE__(n):((t="undefined"!=typeof globalThis?globalThis:t||self).__SVGATOR_PLAYER__=t.__SVGATOR_PLAYER__||{},t.__SVGATOR_PLAYER__["5c7f360c"]=n())}(this,(function(){"use strict";function t(t,n){var e=Object.keys(t);if(Object.getOwnPropertySymbols){var r=Object.getOwnPropertySymbols(t);n&&(r=r.filter((function(n){return Object.getOwnPropertyDescriptor(t,n).enumerable}))),e.push.apply(e,r)}return e}function n(n){for(var e=1;e<arguments.length;e++){var r=null!=arguments[e]?arguments[e]:{};e%2?t(Object(r),!0).forEach((function(t){u(n,t,r[t])})):Object.getOwnPropertyDescriptors?Object.defineProperties(n,Object.getOwnPropertyDescriptors(r)):t(Object(r)).forEach((function(t){Object.defineProperty(n,t,Object.getOwnPropertyDescriptor(r,t))}))}return n}function e(t){return(e="function"==typeof Symbol&&"symbol"==typeof Symbol.iterator?function(t){return typeof t}:function(t){return t&&"function"==typeof Symbol&&t.constructor===Symbol&&t!==Symbol.prototype?"symbol":typeof t})(t)}function r(t,n){if(!(t instanceof n))throw new TypeError("Cannot call a class as a function")}function i(t,n){for(var e=0;e<n.length;e++){var r=n[e];r.enumerable=r.enumerable||!1,r.configurable=!0,"value"in r&&(r.writable=!0),Object.defineProperty(t,r.key,r)}}function o(t,n,e){return n&&i(t.prototype,n),e&&i(t,e),t}function u(t,n,e){return n in t?Object.defineProperty(t,n,{value:e,enumerable:!0,configurable:!0,writable:!0}):t[n]=e,t}function a(t){return(a=Object.setPrototypeOf?Object.getPrototypeOf:function(t){return t.__proto__||Object.getPrototypeOf(t)})(t)}function l(t,n){return(l=Object.setPrototypeOf||function(t,n){return t.__proto__=n,t})(t,n)}function s(){if("undefined"==typeof Reflect||!Reflect.construct)return!1;if(Reflect.construct.sham)return!1;if("function"==typeof Proxy)return!0;try{return Boolean.prototype.valueOf.call(Reflect.construct(Boolean,[],(function(){}))),!0}catch(t){return!1}}function f(t,n,e){return(f=s()?Reflect.construct:function(t,n,e){var r=[null];r.push.apply(r,n);var i=new(Function.bind.apply(t,r));return e&&l(i,e.prototype),i}).apply(null,arguments)}function c(t,n){if(n&&("object"==typeof n||"function"==typeof n))return n;if(void 0!==n)throw new TypeError("Derived constructors may only return object or undefined");return function(t){if(void 0===t)throw new ReferenceError("this hasn't been initialised - super() hasn't been called");return t}(t)}function h(t,n,e){return(h="undefined"!=typeof Reflect&&Reflect.get?Reflect.get:function(t,n,e){var r=function(t,n){for(;!Object.prototype.hasOwnProperty.call(t,n)&&null!==(t=a(t)););return t}(t,n);if(r){var i=Object.getOwnPropertyDescriptor(r,n);return i.get?i.get.call(e):i.value}})(t,n,e||t)}function v(t){return function(t){if(Array.isArray(t))return y(t)}(t)||function(t){if("undefined"!=typeof Symbol&&null!=t[Symbol.iterator]||null!=t["@@iterator"])return Array.from(t)}(t)||function(t,n){if(!t)return;if("string"==typeof t)return y(t,n);var e=Object.prototype.toString.call(t).slice(8,-1);"Object"===e&&t.constructor&&(e=t.constructor.name);if("Map"===e||"Set"===e)return Array.from(t);if("Arguments"===e||/^(?:Ui|I)nt(?:8|16|32)(?:Clamped)?Array$/.test(e))return y(t,n)}(t)||function(){throw new TypeError("Invalid attempt to spread non-iterable instance.\nIn order to be iterable, non-array objects must have a [Symbol.iterator]() method.")}()}function y(t,n){(null==n||n>t.length)&&(n=t.length);for(var e=0,r=new Array(n);e<n;e++)r[e]=t[e];return r}function g(t,n,e){if(Number.isInteger(t))return t;var r=Math.pow(10,n);return Math[e]((+t+Number.EPSILON)*r)/r}Number.isInteger||(Number.isInteger=function(t){return"number"==typeof t&&isFinite(t)&&Math.floor(t)===t}),Number.EPSILON||(Number.EPSILON=2220446049250313e-31);var d=p(Math.pow(10,-6));function p(t){var n=arguments.length>1&&void 0!==arguments[1]?arguments[1]:6;return g(t,n,"round")}function m(t,n){var e=arguments.length>2&&void 0!==arguments[2]?arguments[2]:d;return Math.abs(t-n)<e}p(Math.pow(10,-2)),p(Math.pow(10,-4));var b=Math.PI/180;function w(t){return t}function A(t,n,e){var r=1-e;return 3*e*r*(t*r+n*e)+e*e*e}function _(){var t=arguments.length>0&&void 0!==arguments[0]?arguments[0]:0,n=arguments.length>1&&void 0!==arguments[1]?arguments[1]:0,e=arguments.length>2&&void 0!==arguments[2]?arguments[2]:1,r=arguments.length>3&&void 0!==arguments[3]?arguments[3]:1;return t<0||t>1||e<0||e>1?null:m(t,n)&&m(e,r)?w:function(i){if(i<=0)return t>0?i*n/t:0===n&&e>0?i*r/e:0;if(i>=1)return e<1?1+(i-1)*(r-1)/(e-1):1===e&&t<1?1+(i-1)*(n-1)/(t-1):1;for(var o,u=0,a=1;u<a;){var l=A(t,e,o=(u+a)/2);if(m(i,l))break;l<i?u=o:a=o}return A(n,r,o)}}function x(){return 1}function k(t){return 1===t?1:0}function S(){var t=arguments.length>0&&void 0!==arguments[0]?arguments[0]:1,n=arguments.length>1&&void 0!==arguments[1]?arguments[1]:0;if(1===t){if(0===n)return k;if(1===n)return x}var e=1/t;return function(t){return t>=1?1:(t+=n*e)-t%e}}var O=Math.sin,j=Math.cos,M=Math.acos,E=Math.asin,P=Math.tan,I=Math.atan2,R=Math.PI/180,F=180/Math.PI,N=Math.sqrt,T=function(){function t(){var n=arguments.length>0&&void 0!==arguments[0]?arguments[0]:1,e=arguments.length>1&&void 0!==arguments[1]?arguments[1]:0,i=arguments.length>2&&void 0!==arguments[2]?arguments[2]:0,o=arguments.length>3&&void 0!==arguments[3]?arguments[3]:1,u=arguments.length>4&&void 0!==arguments[4]?arguments[4]:0,a=arguments.length>5&&void 0!==arguments[5]?arguments[5]:0;r(this,t),this.m=[n,e,i,o,u,a],this.i=null,this.w=null,this.s=null}return o(t,[{key:"determinant",get:function(){var t=this.m;return t[0]*t[3]-t[1]*t[2]}},{key:"isIdentity",get:function(){if(null===this.i){var t=this.m;this.i=1===t[0]&&0===t[1]&&0===t[2]&&1===t[3]&&0===t[4]&&0===t[5]}return this.i}},{key:"point",value:function(t,n){var e=this.m;return{x:e[0]*t+e[2]*n+e[4],y:e[1]*t+e[3]*n+e[5]}}},{key:"translateSelf",value:function(){var t=arguments.length>0&&void 0!==arguments[0]?arguments[0]:0,n=arguments.length>1&&void 0!==arguments[1]?arguments[1]:0;if(!t&&!n)return this;var e=this.m;return e[4]+=e[0]*t+e[2]*n,e[5]+=e[1]*t+e[3]*n,this.w=this.s=this.i=null,this}},{key:"rotateSelf",value:function(){var t=arguments.length>0&&void 0!==arguments[0]?arguments[0]:0;if(t%=360){var n=O(t*=R),e=j(t),r=this.m,i=r[0],o=r[1];r[0]=i*e+r[2]*n,r[1]=o*e+r[3]*n,r[2]=r[2]*e-i*n,r[3]=r[3]*e-o*n,this.w=this.s=this.i=null}return this}},{key:"scaleSelf",value:function(){var t=arguments.length>0&&void 0!==arguments[0]?arguments[0]:1,n=arguments.length>1&&void 0!==arguments[1]?arguments[1]:1;if(1!==t||1!==n){var e=this.m;e[0]*=t,e[1]*=t,e[2]*=n,e[3]*=n,this.w=this.s=this.i=null}return this}},{key:"skewSelf",value:function(t,n){if(n%=360,(t%=360)||n){var e=this.m,r=e[0],i=e[1],o=e[2],u=e[3];t&&(t=P(t*R),e[2]+=r*t,e[3]+=i*t),n&&(n=P(n*R),e[0]+=o*n,e[1]+=u*n),this.w=this.s=this.i=null}return this}},{key:"resetSelf",value:function(){var t=arguments.length>0&&void 0!==arguments[0]?arguments[0]:1,n=arguments.length>1&&void 0!==arguments[1]?arguments[1]:0,e=arguments.length>2&&void 0!==arguments[2]?arguments[2]:0,r=arguments.length>3&&void 0!==arguments[3]?arguments[3]:1,i=arguments.length>4&&void 0!==arguments[4]?arguments[4]:0,o=arguments.length>5&&void 0!==arguments[5]?arguments[5]:0,u=this.m;return u[0]=t,u[1]=n,u[2]=e,u[3]=r,u[4]=i,u[5]=o,this.w=this.s=this.i=null,this}},{key:"recomposeSelf",value:function(){var t=arguments.length>0&&void 0!==arguments[0]?arguments[0]:null,n=arguments.length>1&&void 0!==arguments[1]?arguments[1]:null,e=arguments.length>2&&void 0!==arguments[2]?arguments[2]:null,r=arguments.length>3&&void 0!==arguments[3]?arguments[3]:null,i=arguments.length>4&&void 0!==arguments[4]?arguments[4]:null;return this.isIdentity||this.resetSelf(),t&&(t.x||t.y)&&this.translateSelf(t.x,t.y),n&&this.rotateSelf(n),e&&(e.x&&this.skewSelf(e.x,0),e.y&&this.skewSelf(0,e.y)),!r||1===r.x&&1===r.y||this.scaleSelf(r.x,r.y),i&&(i.x||i.y)&&this.translateSelf(i.x,i.y),this}},{key:"decompose",value:function(){var t=arguments.length>0&&void 0!==arguments[0]?arguments[0]:0,n=arguments.length>1&&void 0!==arguments[1]?arguments[1]:0,e=this.m,r=e[0]*e[0]+e[1]*e[1],i=[[e[0],e[1]],[e[2],e[3]]],o=N(r);if(0===o)return{origin:{x:p(e[4]),y:p(e[5])},translate:{x:p(t),y:p(n)},scale:{x:0,y:0},skew:{x:0,y:0},rotate:0};i[0][0]/=o,i[0][1]/=o;var u=e[0]*e[3]-e[1]*e[2]<0;u&&(o=-o);var a=i[0][0]*i[1][0]+i[0][1]*i[1][1];i[1][0]-=i[0][0]*a,i[1][1]-=i[0][1]*a;var l=N(i[1][0]*i[1][0]+i[1][1]*i[1][1]);if(0===l)return{origin:{x:p(e[4]),y:p(e[5])},translate:{x:p(t),y:p(n)},scale:{x:p(o),y:0},skew:{x:0,y:0},rotate:0};i[1][0]/=l,i[1][1]/=l,a/=l;var s=0;return i[1][1]<0?(s=M(i[1][1])*F,i[0][1]<0&&(s=360-s)):s=E(i[0][1])*F,u&&(s=-s),a=I(a,N(i[0][0]*i[0][0]+i[0][1]*i[0][1]))*F,u&&(a=-a),{origin:{x:p(e[4]),y:p(e[5])},translate:{x:p(t),y:p(n)},scale:{x:p(o),y:p(l)},skew:{x:p(a),y:0},rotate:p(s)}}},{key:"clone",value:function(){var t=this.m;return new this.constructor(t[0],t[1],t[2],t[3],t[4],t[5])}},{key:"toString",value:function(){var t=arguments.length>0&&void 0!==arguments[0]?arguments[0]:" ";if(null===this.s){var n=this.m.map((function(t){return p(t)}));1===n[0]&&0===n[1]&&0===n[2]&&1===n[3]?this.s="translate("+n[4]+t+n[5]+")":this.s="matrix("+n.join(t)+")"}return this.s}}],[{key:"create",value:function(t){return t?Array.isArray(t)?f(this,v(t)):t instanceof this?t.clone():(new this).recomposeSelf(t.origin,t.rotate,t.skew,t.scale,t.translate):new this}}]),t}();function q(t,n,e){return t>=.5?e:n}function B(t,n,e){return 0===t||n===e?n:t*(e-n)+n}function D(t,n,e){var r=B(t,n,e);return r<=0?0:r}function L(t,n,e){var r=B(t,n,e);return r<=0?0:r>=1?1:r}function C(t,n,e){return 0===t?n:1===t?e:{x:B(t,n.x,e.x),y:B(t,n.y,e.y)}}function V(t,n,e){var r=function(t,n,e){return Math.round(B(t,n,e))}(t,n,e);return r<=0?0:r>=255?255:r}function G(t,n,e){return 0===t?n:1===t?e:{r:V(t,n.r,e.r),g:V(t,n.g,e.g),b:V(t,n.b,e.b),a:B(t,null==n.a?1:n.a,null==e.a?1:e.a)}}function z(t,n){for(var e=[],r=0;r<t;r++)e.push(n);return e}function Y(t,n){if(--n<=0)return t;var e=(t=Object.assign([],t)).length;do{for(var r=0;r<e;r++)t.push(t[r])}while(--n>0);return t}var $,U=function(){function t(n){r(this,t),this.list=n,this.length=n.length}return o(t,[{key:"setAttribute",value:function(t,n){for(var e=this.list,r=0;r<this.length;r++)e[r].setAttribute(t,n)}},{key:"removeAttribute",value:function(t){for(var n=this.list,e=0;e<this.length;e++)n[e].removeAttribute(t)}},{key:"style",value:function(t,n){for(var e=this.list,r=0;r<this.length;r++)e[r].style[t]=n}}]),t}(),Q=/-./g,H=function(t,n){return n.toUpperCase()};function J(t){return"function"==typeof t?t:q}function Z(t){return t?"function"==typeof t?t:Array.isArray(t)?function(t){var n=arguments.length>1&&void 0!==arguments[1]?arguments[1]:w;if(!Array.isArray(t))return n;switch(t.length){case 1:return S(t[0])||n;case 2:return S(t[0],t[1])||n;case 4:return _(t[0],t[1],t[2],t[3])||n}return n}(t,null):function(t,n){var e=arguments.length>2&&void 0!==arguments[2]?arguments[2]:w;switch(t){case"linear":return w;case"steps":return S(n.steps||1,n.jump||0)||e;case"bezier":case"cubic-bezier":return _(n.x1||0,n.y1||0,n.x2||0,n.y2||0)||e}return e}(t.type,t.value,null):null}function K(t,n,e){var r=arguments.length>3&&void 0!==arguments[3]&&arguments[3],i=n.length-1;if(t<=n[0].t)return r?[0,0,n[0].v]:n[0].v;if(t>=n[i].t)return r?[i,1,n[i].v]:n[i].v;var o,u=n[0],a=null;for(o=1;o<=i;o++){if(!(t>n[o].t)){a=n[o];break}u=n[o]}return null==a?r?[i,1,n[i].v]:n[i].v:u.t===a.t?r?[o,1,a.v]:a.v:(t=(t-u.t)/(a.t-u.t),u.e&&(t=u.e(t)),r?[o,t,e(t,u.v,a.v)]:e(t,u.v,a.v))}function W(t,n){var e=arguments.length>2&&void 0!==arguments[2]?arguments[2]:null;return t&&t.length?"function"!=typeof n?null:("function"!=typeof e&&(e=null),function(r){var i=K(r,t,n);return null!=i&&e&&(i=e(i)),i}):null}function X(t,n){return t.t-n.t}function tt(t,n,r,i,o){var u,a="@"===r[0],l="#"===r[0],s=$[r],f=q;switch(a?(u=r.substr(1),r=u.replace(Q,H)):l&&(r=r.substr(1)),e(s)){case"function":if(f=s(i,o,K,Z,r,a,n,t),l)return f;break;case"string":f=W(i,J(s));break;case"object":if((f=W(i,J(s.i),s.f))&&"function"==typeof s.u)return s.u(n,f,r,a,t)}return f?function(t,n,e){if(arguments.length>3&&void 0!==arguments[3]&&arguments[3])return t instanceof U?function(r){return t.style(n,e(r))}:function(r){return t.style[n]=e(r)};if(Array.isArray(n)){var r=n.length;return function(i){var o=e(i);if(null==o)for(var u=0;u<r;u++)t[u].removeAttribute(n);else for(var a=0;a<r;a++)t[a].setAttribute(n,o)}}return function(r){var i=e(r);null==i?t.removeAttribute(n):t.setAttribute(n,i)}}(n,r,f,a):null}function nt(t,n,r,i){if(!i||"object"!==e(i))return null;var o=null,u=null;return Array.isArray(i)?u=function(t){if(!t||!t.length)return null;for(var n=0;n<t.length;n++)t[n].e&&(t[n].e=Z(t[n].e));return t.sort(X)}(i):(u=i.keys,o=i.data||null),u?tt(t,n,r,u,o):null}function et(t,n,e){if(!e)return null;var r=[];for(var i in e)if(e.hasOwnProperty(i)){var o=nt(t,n,i,e[i]);o&&r.push(o)}return r.length?r:null}function rt(t,n){if(!n.settings.duration||n.settings.duration<0)return null;var e,r,i,o,u,a=function(t,n){if(!n)return null;var e=[];if(Array.isArray(n))for(var r=n.length,i=0;i<r;i++){var o=n[i];if(2===o.length){var u=null;if("string"==typeof o[0])u=t.getElementById(o[0]);else if(Array.isArray(o[0])){u=[];for(var a=0;a<o[0].length;a++)if("string"==typeof o[0][a]){var l=t.getElementById(o[0][a]);l&&u.push(l)}u=u.length?1===u.length?u[0]:new U(u):null}if(u){var s=et(t,u,o[1]);s&&(e=e.concat(s))}}}else for(var f in n)if(n.hasOwnProperty(f)){var c=t.getElementById(f);if(c){var h=et(t,c,n[f]);h&&(e=e.concat(h))}}return e.length?e:null}(t,n.elements);return a?(e=a,r=n.settings,i=r.duration,o=e.length,u=null,function(t,n){var a=r.iterations||1/0,l=(r.alternate&&a%2==0)^r.direction>0?i:0,s=t%i,f=1+(t-s)/i;n*=r.direction,r.alternate&&f%2==0&&(n=-n);var c=!1;if(f>a)s=l,c=!0,-1===r.fill&&(s=r.direction>0?0:i);else if(n<0&&(s=i-s),s===u)return!1;u=s;for(var h=0;h<o;h++)e[h](s);return c}):null}function it(t,n){for(var e=n.querySelectorAll("svg"),r=0;r<e.length;r++)if(e[r].id===t.root&&!e[r].svgatorAnimation)return e[r].svgatorAnimation=!0,e[r];return null}function ot(t){var n=function(t){return t.shadowRoot};return document?Array.from(t.querySelectorAll(":not("+["a","area","audio","br","canvas","circle","datalist","embed","g","head","hr","iframe","img","input","link","object","path","polygon","rect","script","source","style","svg","title","track","video"].join()+")")).filter(n).map(n):[]}function ut(t){var n=arguments.length>1&&void 0!==arguments[1]?arguments[1]:document,e=arguments.length>2&&void 0!==arguments[2]?arguments[2]:0,r=it(t,n);if(r)return r;if(e>=20)return null;for(var i=ot(n),o=0;o<i.length;o++){var u=ut(t,i[o],e+1);if(u)return u}return null}function at(t,n){if($=n,!t||!t.root||!Array.isArray(t.animations))return null;var e=ut(t);if(!e)return null;var r=t.animations.map((function(t){return rt(e,t)})).filter((function(t){return!!t}));return r.length?{svg:e,animations:r,animationSettings:t.animationSettings,options:t.options||void 0}:null}function lt(t){var n=arguments.length>1&&void 0!==arguments[1]?arguments[1]:null,e=arguments.length>2&&void 0!==arguments[2]?arguments[2]:Number,r=arguments.length>3&&void 0!==arguments[3]?arguments[3]:"undefined"!=typeof BigInt&&BigInt,i="0x"+(t.replace(/[^0-9a-fA-F]+/g,"")||27);return n&&r&&e.isSafeInteger&&!e.isSafeInteger(+i)?e(r(i))%n+n:+i}function st(t,n,e){return!t||!e||n>t.length?t:t.substring(0,n)+st(t.substring(n+1),e,e)}function ft(t){var n=arguments.length>1&&void 0!==arguments[1]?arguments[1]:27;return!t||t%n?t%n:[0,1].includes(n)?n:ft(t/n,n)}function ct(t,n,e){if(t&&t.length){var r=lt(e),i=ft(r)+5,o=st(t,ft(r,5),i);return o=o.replace(/\x7c$/g,"==").replace(/\x2f$/g,"="),o=function(t,n,e){var r=+("0x"+t.substring(0,4));t=t.substring(4);for(var i=lt(n,r)%r+e%27,o=[],u=0;u<t.length;u+=2)if("|"!==t[u]){var a=+("0x"+t[u]+t[u+1])-i;o.push(a)}else{var l=+("0x"+t.substring(u+1,u+1+4))-i;u+=3,o.push(l)}return String.fromCharCode.apply(String,o)}(o=(o=atob(o)).replace(/[\x41-\x5A]/g,""),n,r),o=JSON.parse(o)}}var ht=[{key:"alternate",def:!1},{key:"fill",def:1},{key:"iterations",def:0},{key:"direction",def:1},{key:"speed",def:1},{key:"fps",def:100}],vt=function(){function t(n,e){var i=this,o=arguments.length>2&&void 0!==arguments[2]?arguments[2]:null;r(this,t),this._id=0,this._running=!1,this._rollingBack=!1,this._animations=n,this._settings=e,(!o||o<"2022-05-02")&&delete this._settings.speed,ht.forEach((function(t){i._settings[t.key]=i._settings[t.key]||t.def})),this.duration=e.duration,this.offset=e.offset||0,this.rollbackStartOffset=0}return o(t,[{key:"alternate",get:function(){return this._settings.alternate}},{key:"fill",get:function(){return this._settings.fill}},{key:"iterations",get:function(){return this._settings.iterations}},{key:"direction",get:function(){return this._settings.direction}},{key:"speed",get:function(){return this._settings.speed}},{key:"fps",get:function(){return this._settings.fps}},{key:"maxFiniteDuration",get:function(){return this.iterations>0?this.iterations*this.duration:this.duration}},{key:"_apply",value:function(t){for(var n=arguments.length>1&&void 0!==arguments[1]?arguments[1]:{},e=this._animations,r=e.length,i=0,o=0;o<r;o++)n[o]?i++:(n[o]=e[o](t,1),n[o]&&i++);return i}},{key:"_rollback",value:function(t){var n=this,e=1/0,r=null;this.rollbackStartOffset=t,this._rollingBack=!0,this._running=!0;this._id=window.requestAnimationFrame((function i(o){if(n._rollingBack){null==r&&(r=o);var u=Math.round(t-(o-r)*n.speed);if(u>n.duration&&e!==1/0){var a=!!n.alternate&&u/n.duration%2>1,l=u%n.duration;u=(l+=a?n.duration:0)||n.duration}var s=(n.fps?1e3/n.fps:0)*n.speed,f=Math.max(0,u);f<=e-s&&(n.offset=f,e=f,n._apply(f));var c=n.iterations>0&&-1===n.fill&&u>=n.maxFiniteDuration;(u<=0||n.offset<u||c)&&n.stop(),n._id=window.requestAnimationFrame(i)}}))}},{key:"_start",value:function(){var t=this,n=arguments.length>0&&void 0!==arguments[0]?arguments[0]:0,e=-1/0,r=null,i={};this._running=!0;var o=function o(u){null==r&&(r=u);var a=Math.round((u-r)*t.speed+n),l=(t.fps?1e3/t.fps:0)*t.speed;if(a>=e+l&&!t._rollingBack&&(t.offset=a,e=a,t._apply(a,i)===t._animations.length))return void t.pause(!0);t._id=window.requestAnimationFrame(o)};this._id=window.requestAnimationFrame(o)}},{key:"_pause",value:function(){this._id&&window.cancelAnimationFrame(this._id),this._running=!1}},{key:"play",value:function(){if(!this._running)return this._rollingBack?this._rollback(this.offset):this._start(this.offset)}},{key:"stop",value:function(){this._pause(),this.offset=0,this.rollbackStartOffset=0,this._rollingBack=!1,this._apply(0)}},{key:"reachedToEnd",value:function(){return this.iterations>0&&this.offset>=this.iterations*this.duration}},{key:"restart",value:function(){var t=arguments.length>0&&void 0!==arguments[0]&&arguments[0];this.stop(t),this.play(t)}},{key:"pause",value:function(){this._pause()}},{key:"reverse",value:function(){this.direction=-this.direction}}],[{key:"build",value:function(t,n){delete t.animationSettings,t.options=ct(t.options,t.root,"5c7f360c"),t.animations.map((function(n){n.settings=ct(n.s,t.root,"5c7f360c"),delete n.s,t.animationSettings||(t.animationSettings=n.settings)}));var e=t.version;if(!(t=at(t,n)))return null;var r=t.options||{},i=new this(t.animations,t.animationSettings,e);return{el:t.svg,options:r,player:i}}},{key:"push",value:function(t){return this.build(t)}},{key:"init",value:function(){var t=this,n=window.__SVGATOR_PLAYER__&&window.__SVGATOR_PLAYER__["5c7f360c"];Array.isArray(n)&&n.splice(0).forEach((function(n){return t.build(n)}))}}]),t}();function yt(t){return p(t)+""}function gt(t){var n=arguments.length>1&&void 0!==arguments[1]?arguments[1]:" ";return t&&t.length?t.map(yt).join(n):""}function dt(t){if(!t)return"transparent";if(null==t.a||t.a>=1){var n=function(t){return 1===(t=parseInt(t).toString(16)).length?"0"+t:t},e=function(t){return t.charAt(0)===t.charAt(1)},r=n(t.r),i=n(t.g),o=n(t.b);return e(r)&&e(i)&&e(o)&&(r=r.charAt(0),i=i.charAt(0),o=o.charAt(0)),"#"+r+i+o}return"rgba("+t.r+","+t.g+","+t.b+","+t.a+")"}function pt(t){return t?"url(#"+t+")":"none"}!function(){for(var t=0,n=["ms","moz","webkit","o"],e=0;e<n.length&&!window.requestAnimationFrame;++e)window.requestAnimationFrame=window[n[e]+"RequestAnimationFrame"],window.cancelAnimationFrame=window[n[e]+"CancelAnimationFrame"]||window[n[e]+"CancelRequestAnimationFrame"];window.requestAnimationFrame||(window.requestAnimationFrame=function(n){var e=Date.now(),r=Math.max(0,16-(e-t)),i=window.setTimeout((function(){n(e+r)}),r);return t=e+r,i},window.cancelAnimationFrame=window.clearTimeout)}();var mt={f:null,i:function(t,n,e){return 0===t?n:1===t?e:{x:D(t,n.x,e.x),y:D(t,n.y,e.y)}},u:function(t,n){return function(e){var r=n(e);t.setAttribute("rx",yt(r.x)),t.setAttribute("ry",yt(r.y))}}},bt={f:null,i:function(t,n,e){return 0===t?n:1===t?e:{width:D(t,n.width,e.width),height:D(t,n.height,e.height)}},u:function(t,n){return function(e){var r=n(e);t.setAttribute("width",yt(r.width)),t.setAttribute("height",yt(r.height))}}};Object.freeze({M:2,L:2,Z:0,H:1,V:1,C:6,Q:4,T:2,S:4,A:7});var wt={},At=null;function _t(t){var n=function(){if(At)return At;if("object"!==("undefined"==typeof document?"undefined":e(document))||!document.createElementNS)return{};var t=document.createElementNS("http://www.w3.org/2000/svg","svg");return t&&t.style?(t.style.position="absolute",t.style.opacity="0.01",t.style.zIndex="-9999",t.style.left="-9999px",t.style.width="1px",t.style.height="1px",At={svg:t}):{}}().svg;if(!n)return function(t){return null};var r=document.createElementNS(n.namespaceURI,"path");r.setAttributeNS(null,"d",t),r.setAttributeNS(null,"fill","none"),r.setAttributeNS(null,"stroke","none"),n.appendChild(r);var i=r.getTotalLength();return function(t){var n=r.getPointAtLength(i*t);return{x:n.x,y:n.y}}}function xt(t){return wt[t]?wt[t]:wt[t]=_t(t)}function kt(t,n,e,r){if(!t||!r)return!1;var i=["M",t.x,t.y];if(n&&e&&(i.push("C"),i.push(n.x),i.push(n.y),i.push(e.x),i.push(e.y)),n?!e:e){var o=n||e;i.push("Q"),i.push(o.x),i.push(o.y)}return n||e||i.push("L"),i.push(r.x),i.push(r.y),i.join(" ")}function St(t,n,e,r){var i=arguments.length>4&&void 0!==arguments[4]?arguments[4]:1,o=kt(t,n,e,r),u=xt(o);try{return u(i)}catch(t){return null}}function Ot(t,n,e){return t+(n-t)*e}function jt(t,n,e){var r=arguments.length>3&&void 0!==arguments[3]&&arguments[3],i={x:Ot(t.x,n.x,e),y:Ot(t.y,n.y,e)};return r&&(i.a=Mt(t,n)),i}function Mt(t,n){return Math.atan2(n.y-t.y,n.x-t.x)}function Et(t,n,e,r){var i=1-r;return i*i*t+2*i*r*n+r*r*e}function Pt(t,n,e,r){return 2*(1-r)*(n-t)+2*r*(e-n)}function It(t,n,e,r){var i=arguments.length>4&&void 0!==arguments[4]&&arguments[4],o=St(t,n,null,e,r);return o||(o={x:Et(t.x,n.x,e.x,r),y:Et(t.y,n.y,e.y,r)}),i&&(o.a=Rt(t,n,e,r)),o}function Rt(t,n,e,r){return Math.atan2(Pt(t.y,n.y,e.y,r),Pt(t.x,n.x,e.x,r))}function Ft(t,n,e,r,i){var o=i*i;return i*o*(r-t+3*(n-e))+3*o*(t+e-2*n)+3*i*(n-t)+t}function Nt(t,n,e,r,i){var o=1-i;return 3*(o*o*(n-t)+2*o*i*(e-n)+i*i*(r-e))}function Tt(t,n,e,r,i){var o=arguments.length>5&&void 0!==arguments[5]&&arguments[5],u=St(t,n,e,r,i);return u||(u={x:Ft(t.x,n.x,e.x,r.x,i),y:Ft(t.y,n.y,e.y,r.y,i)}),o&&(u.a=qt(t,n,e,r,i)),u}function qt(t,n,e,r,i){return Math.atan2(Nt(t.y,n.y,e.y,r.y,i),Nt(t.x,n.x,e.x,r.x,i))}function Bt(t,n,e){var r=arguments.length>3&&void 0!==arguments[3]&&arguments[3];if(Lt(n)){if(Ct(e))return It(n,e.start,e,t,r)}else if(Lt(e)){if(Vt(n))return It(n,n.end,e,t,r)}else{if(Vt(n))return Ct(e)?Tt(n,n.end,e.start,e,t,r):It(n,n.end,e,t,r);if(Ct(e))return It(n,e.start,e,t,r)}return jt(n,e,t,r)}function Dt(t,n,e){var r=Bt(t,n,e,!0);return r.a=function(t){return arguments.length>1&&void 0!==arguments[1]&&arguments[1]?t+Math.PI:t}(r.a)/b,r}function Lt(t){return!t.type||"corner"===t.type}function Ct(t){return null!=t.start&&!Lt(t)}function Vt(t){return null!=t.end&&!Lt(t)}var Gt=new T;var zt={f:yt,i:B},Yt={f:yt,i:L};function $t(t,n,e){return t.map((function(t){return function(t,n,e){var r=t.v;if(!r||"g"!==r.t||r.s||!r.v||!r.r)return t;var i=e.getElementById(r.r),o=i&&i.querySelectorAll("stop")||[];return r.s=r.v.map((function(t,n){var e=o[n]&&o[n].getAttribute("offset");return{c:t,o:e=p(parseInt(e)/100)}})),delete r.v,t}(t,0,e)}))}var Ut={gt:"gradientTransform",c:{x:"cx",y:"cy"},rd:"r",f:{x:"x1",y:"y1"},to:{x:"x2",y:"y2"}};function Qt(t,n,r,i,o,u,a,l){return $t(t,0,l),n=function(t,n,e){for(var r,i,o,u=t.length-1,a={},l=0;l<=u;l++)(r=t[l]).e&&(r.e=n(r.e)),r.v&&"g"===(i=r.v).t&&i.r&&(o=e.getElementById(i.r))&&(a[i.r]={e:o,s:o.querySelectorAll("stop")});return a}(t,i,l),function(i){var o=r(i,t,Ht);if(!o)return"none";if("c"===o.t)return dt(o.v);if("g"===o.t){if(!n[o.r])return pt(o.r);var u=n[o.r];return function(t,n){for(var e=t.s,r=e.length;r<n.length;r++){var i=e[e.length-1].cloneNode();i.id=Kt(i.id),t.e.appendChild(i),e=t.s=t.e.querySelectorAll("stop")}for(var o=0,u=e.length,a=n.length-1;o<u;o++)e[o].setAttribute("stop-color",dt(n[Math.min(o,a)].c)),e[o].setAttribute("offset",n[Math.min(o,a)].o)}(u,o.s),Object.keys(Ut).forEach((function(t){if(void 0!==o[t])if("object"!==e(Ut[t])){var n,r="gt"===t?(n=o[t],Array.isArray(n)?"matrix("+n.join(" ")+")":""):o[t],i=Ut[t];u.e.setAttribute(i,r)}else Object.keys(Ut[t]).forEach((function(n){if(void 0!==o[t][n]){var e=o[t][n],r=Ut[t][n];u.e.setAttribute(r,e)}}))})),pt(o.r)}return"none"}}function Ht(t,e,r){if(0===t)return e;if(1===t)return r;if(e&&r){var i=e.t;if(i===r.t)switch(e.t){case"c":return{t:i,v:G(t,e.v,r.v)};case"g":if(e.r===r.r){var o={t:i,s:Jt(t,e.s,r.s),r:e.r};return e.gt&&r.gt&&(o.gt=function(t,n,e){var r=n.length;if(r!==e.length)return q(t,n,e);for(var i=new Array(r),o=0;o<r;o++)i[o]=B(t,n[o],e[o]);return i}(t,e.gt,r.gt)),e.c?(o.c=C(t,e.c,r.c),o.rd=D(t,e.rd,r.rd)):e.f&&(o.f=C(t,e.f,r.f),o.to=C(t,e.to,r.to)),o}}if("c"===e.t&&"g"===r.t||"c"===r.t&&"g"===e.t){var u="c"===e.t?e:r,a="g"===e.t?n({},e):n({},r),l=a.s.map((function(t){return{c:u.v,o:t.o}}));return a.s="c"===e.t?Jt(t,l,a.s):Jt(t,a.s,l),a}}return q(t,e,r)}function Jt(t,n,e){if(n.length===e.length)return n.map((function(n,r){return Zt(t,n,e[r])}));for(var r=Math.max(n.length,e.length),i=[],o=0;o<r;o++){var u=Zt(t,n[Math.min(o,n.length-1)],e[Math.min(o,e.length-1)]);i.push(u)}return i}function Zt(t,n,e){return{o:L(t,n.o,e.o||0),c:G(t,n.c,e.c||{})}}function Kt(t){return t.replace(/-fill-([0-9]+)$/,(function(t,n){return"-fill-"+(+n+1)}))}var Wt={fill:Qt,"fill-opacity":Yt,stroke:Qt,"stroke-opacity":Yt,"stroke-width":zt,"stroke-dashoffset":{f:yt,i:B},"stroke-dasharray":{f:function(t){var n=arguments.length>1&&void 0!==arguments[1]?arguments[1]:" ";return t&&t.length>0&&(t=t.map((function(t){return p(t,4)}))),gt(t,n)},i:function(t,n,e){var r,i,o,u=n.length,a=e.length;if(u!==a)if(0===u)n=z(u=a,0);else if(0===a)a=u,e=z(u,0);else{var l=(o=(r=u)*(i=a)/function(t,n){for(var e;n;)e=n,n=t%n,t=e;return t||1}(r,i))<0?-o:o;n=Y(n,Math.floor(l/u)),e=Y(e,Math.floor(l/a)),u=a=l}for(var s=[],f=0;f<u;f++)s.push(p(D(t,n[f],e[f])));return s}},opacity:Yt,transform:function(t,n,r,i){if(!(t=function(t,n){if(!t||"object"!==e(t))return null;var r=!1;for(var i in t)t.hasOwnProperty(i)&&(t[i]&&t[i].length?(t[i].forEach((function(t){t.e&&(t.e=n(t.e))})),r=!0):delete t[i]);return r?t:null}(t,i)))return null;var o=function(e,i,o){var u=arguments.length>3&&void 0!==arguments[3]?arguments[3]:null;return t[e]?r(i,t[e],o):n&&n[e]?n[e]:u};return n&&n.a&&t.o?function(n){var e=r(n,t.o,Dt);return Gt.recomposeSelf(e,o("r",n,B,0)+e.a,o("k",n,C),o("s",n,C),o("t",n,C)).toString()}:function(t){return Gt.recomposeSelf(o("o",t,Bt,null),o("r",t,B,0),o("k",t,C),o("s",t,C),o("t",t,C)).toString()}},r:zt,"#size":bt,"#radius":mt,_:function(t,n){if(Array.isArray(t))for(var e=0;e<t.length;e++)this[t[e]]=n;else this[t]=n}},Xt=function(t){!function(t,n){if("function"!=typeof n&&null!==n)throw new TypeError("Super expression must either be null or a function");t.prototype=Object.create(n&&n.prototype,{constructor:{value:t,writable:!0,configurable:!0}}),n&&l(t,n)}(u,t);var n,e,i=(n=u,e=s(),function(){var t,r=a(n);if(e){var i=a(this).constructor;t=Reflect.construct(r,arguments,i)}else t=r.apply(this,arguments);return c(this,t)});function u(){return r(this,u),i.apply(this,arguments)}return o(u,null,[{key:"build",value:function(t){var n=h(a(u),"build",this).call(this,t,Wt);if(!n)return null;n.el,n.options,function(t,n,e){t.play()}(n.player)}}]),u}(vt);return Xt.init(),Xt}));
(function(s,i,o,w,d,a,b){w[o]=w[o]||{};w[o][s]=w[o][s]||[];w[o][s].push(i);})('5c7f360c',{"root":"eeOL2CGyfQH1","version":"2022-05-04","animations":[{"elements":{"eeOL2CGyfQH2":{"opacity":[{"t":1600,"v":0},{"t":1800,"v":1}]},"eeOL2CGyfQH3":{"opacity":[{"t":1400,"v":0},{"t":1600,"v":1}]},"eeOL2CGyfQH4":{"opacity":[{"t":1200,"v":0},{"t":1400,"v":1}]},"eeOL2CGyfQH5":{"opacity":[{"t":1000,"v":0},{"t":1200,"v":1}]},"eeOL2CGyfQH6":{"opacity":[{"t":800,"v":0},{"t":1000,"v":1}]},"eeOL2CGyfQH7":{"opacity":[{"t":600,"v":0},{"t":800,"v":1}]},"eeOL2CGyfQH8":{"opacity":[{"t":400,"v":0},{"t":600,"v":1}]},"eeOL2CGyfQH9":{"opacity":[{"t":200,"v":0},{"t":400,"v":1}]},"eeOL2CGyfQH10":{"opacity":[{"t":100,"v":0},{"t":300,"v":1}]},"eeOL2CGyfQH11":{"opacity":[{"t":1600,"v":0},{"t":1800,"v":1}]},"eeOL2CGyfQH14":{"opacity":[{"t":1200,"v":0},{"t":1400,"v":1}]},"eeOL2CGyfQH17":{"opacity":[{"t":100,"v":0},{"t":300,"v":1}]},"eeOL2CGyfQH20":{"opacity":[{"t":1800,"v":0},{"t":2900,"v":1}]},"eeOL2CGyfQH21":{"opacity":[{"t":0,"v":0},{"t":1200,"v":1}]}},"s":"MMDA1ZGI1NWNHOWVhZmYFjOWJhZWEzYTlhODVWjNzQ2ZDZhNmE2YTY2ANWM5ZWEzYWM5ZlA5ZHGFlYTNhOWE4WTVjNzLQ2YjY2NWNhM2FlOWZGhYzliYWVhM0JhOWE4GYWQ1Yzc0NmI2NjVjYQTBhM05hNmE2SDVjNzURJTDZiNjY1YzliYTZShZTlmYWNhODliYWVXUOWY1Yzc0YTA5YmE2YTWQ5ZjY2NWNhZGFhOWKY5ZjllNWM3NFM2YjYN2NWNhMGFhYWQ1Yzc0QNmI2YTZhYjc/"}],"options":"MKDAxMDg4RDJmODA4MTAZlN2Y4MTJmNDcyZjcK5N2M2ZTcxMmZZOGE/J"},'__SVGATOR_PLAYER__',window,document)
]]></script>
</svg>
